<?xml version="1.0" encoding="UTF-8" standalone="no"?>
<!DOCTYPE svg PUBLIC "-//W3C//DTD SVG 1.1//EN"
 "http://www.w3.org/Graphics/SVG/1.1/DTD/svg11.dtd">
<!-- Generated by graphviz version 12.2.1 (0)
 -->
<!-- Title: task_types Pages: 1 -->
<svg width="1368pt" height="585pt"
 viewBox="0.00 0.00 1367.75 585.48" xmlns="http://www.w3.org/2000/svg" xmlns:xlink="http://www.w3.org/1999/xlink">
<g id="graph0" class="graph" transform="scale(1 1) rotate(0) translate(4 581.48)">
<title>task_types</title>
<polygon fill="white" stroke="none" points="-4,4 -4,-581.48 1363.75,-581.48 1363.75,4 -4,4"/>
<g id="clust1" class="cluster">
<title>cluster_legend</title>
<polygon fill="none" stroke="black" stroke-dasharray="5,2" points="8,-338.64 8,-511.64 195.25,-511.64 195.25,-338.64 8,-338.64"/>
<text text-anchor="middle" x="101.62" y="-498.14" font-family="Helvetica,sans-Serif" font-size="10.00">Legend</text>
</g>
<!-- user -->
<g id="node1" class="node">
<title>user</title>
<polygon fill="#cce5ff" stroke="black" points="129.61,-316.2 101.62,-328.64 73.64,-316.2 73.67,-296.08 129.58,-296.08 129.61,-316.2"/>
<text text-anchor="middle" x="101.62" y="-307.51" font-family="Helvetica,sans-Serif" font-size="10.00">user</text>
</g>
<!-- bug -->
<g id="node2" class="node">
<title>bug</title>
<path fill="#d4edda" stroke="black" d="M457.75,-337.64C457.75,-337.64 416.25,-337.64 416.25,-337.64 410.25,-337.64 404.25,-331.64 404.25,-325.64 404.25,-325.64 404.25,-313.64 404.25,-313.64 404.25,-307.64 410.25,-301.64 416.25,-301.64 416.25,-301.64 457.75,-301.64 457.75,-301.64 463.75,-301.64 469.75,-307.64 469.75,-313.64 469.75,-313.64 469.75,-325.64 469.75,-325.64 469.75,-331.64 463.75,-337.64 457.75,-337.64"/>
<text text-anchor="middle" x="437" y="-322.89" font-family="Helvetica,sans-Serif" font-size="10.00">bug</text>
<text text-anchor="middle" x="437" y="-310.14" font-family="Helvetica,sans-Serif" font-size="10.00">large / full</text>
</g>
<!-- user&#45;&gt;bug -->
<g id="edge1" class="edge">
<title>user&#45;&gt;bug</title>
<path fill="none" stroke="black" stroke-dasharray="5,2" d="M129.91,-311.38C187.8,-312.94 323.33,-316.6 392.99,-318.48"/>
<polygon fill="black" stroke="black" points="402.77,-318.74 392.65,-322.97 398.99,-318.64 392.77,-318.47 392.77,-318.47 392.77,-318.47 398.99,-318.64 392.89,-313.97 402.77,-318.74"/>
<text text-anchor="middle" x="295.75" y="-319.6" font-family="Helvetica,sans-Serif" font-size="9.00">creates</text>
</g>
<!-- conversation -->
<g id="node3" class="node">
<title>conversation</title>
<path fill="#d4edda" stroke="black" d="M323.25,-389.64C323.25,-389.64 268.25,-389.64 268.25,-389.64 262.25,-389.64 256.25,-383.64 256.25,-377.64 256.25,-377.64 256.25,-365.64 256.25,-365.64 256.25,-359.64 262.25,-353.64 268.25,-353.64 268.25,-353.64 323.25,-353.64 323.25,-353.64 329.25,-353.64 335.25,-359.64 335.25,-365.64 335.25,-365.64 335.25,-377.64 335.25,-377.64 335.25,-383.64 329.25,-389.64 323.25,-389.64"/>
<text text-anchor="middle" x="295.75" y="-374.89" font-family="Helvetica,sans-Serif" font-size="10.00">conversation</text>
<text text-anchor="middle" x="295.75" y="-362.14" font-family="Helvetica,sans-Serif" font-size="10.00">large / full</text>
</g>
<!-- user&#45;&gt;conversation -->
<g id="edge2" class="edge">
<title>user&#45;&gt;conversation</title>
<path fill="none" stroke="black" stroke-dasharray="5,2" d="M129.18,-316.75C147.81,-321.23 173.22,-327.71 195.25,-334.64 211.83,-339.86 229.71,-346.25 245.67,-352.25"/>
<polygon fill="black" stroke="black" points="254.71,-355.69 243.76,-356.34 251.17,-354.34 245.36,-352.13 245.36,-352.13 245.36,-352.13 251.17,-354.34 246.96,-347.93 254.71,-355.69"/>
<text text-anchor="middle" x="221.75" y="-351.58" font-family="Helvetica,sans-Serif" font-size="9.00">creates</text>
</g>
<!-- plan -->
<g id="node4" class="node">
<title>plan</title>
<path fill="#d4edda" stroke="black" d="M641,-455.64C641,-455.64 568.75,-455.64 568.75,-455.64 562.75,-455.64 556.75,-449.64 556.75,-443.64 556.75,-443.64 556.75,-431.64 556.75,-431.64 556.75,-425.64 562.75,-419.64 568.75,-419.64 568.75,-419.64 641,-419.64 641,-419.64 647,-419.64 653,-425.64 653,-431.64 653,-431.64 653,-443.64 653,-443.64 653,-449.64 647,-455.64 641,-455.64"/>
<text text-anchor="middle" x="604.88" y="-440.89" font-family="Helvetica,sans-Serif" font-size="10.00">plan</text>
<text text-anchor="middle" x="604.88" y="-428.14" font-family="Helvetica,sans-Serif" font-size="10.00">large / read&#45;only</text>
</g>
<!-- user&#45;&gt;plan -->
<g id="edge3" class="edge">
<title>user&#45;&gt;plan</title>
<path fill="none" stroke="black" stroke-dasharray="5,2" d="M129.79,-311.04C150.2,-312.76 177.56,-318.29 195.25,-334.64 205.26,-343.89 198.8,-351.63 205.25,-363.64 256.42,-458.86 256.31,-508.82 353.25,-556.64 436,-597.47 535.26,-510.55 579.97,-464.21"/>
<polygon fill="black" stroke="black" points="586.83,-456.96 583.23,-467.32 584.23,-459.71 579.96,-464.22 579.96,-464.22 579.96,-464.22 584.23,-459.71 576.69,-461.13 586.83,-456.96"/>
<text text-anchor="middle" x="369.75" y="-568.93" font-family="Helvetica,sans-Serif" font-size="9.00">creates</text>
</g>
<!-- research -->
<g id="node5" class="node">
<title>research</title>
<path fill="#d4edda" stroke="black" d="M822,-241.64C822,-241.64 734,-241.64 734,-241.64 728,-241.64 722,-235.64 722,-229.64 722,-229.64 722,-217.64 722,-217.64 722,-211.64 728,-205.64 734,-205.64 734,-205.64 822,-205.64 822,-205.64 828,-205.64 834,-211.64 834,-217.64 834,-217.64 834,-229.64 834,-229.64 834,-235.64 828,-241.64 822,-241.64"/>
<text text-anchor="middle" x="778" y="-226.89" font-family="Helvetica,sans-Serif" font-size="10.00">research</text>
<text text-anchor="middle" x="778" y="-214.14" font-family="Helvetica,sans-Serif" font-size="10.00">medium / read&#45;only</text>
</g>
<!-- user&#45;&gt;research -->
<g id="edge4" class="edge">
<title>user&#45;&gt;research</title>
<path fill="none" stroke="black" stroke-dasharray="5,2" d="M114.32,-295.69C141.86,-262.32 214.57,-184.64 294.75,-184.64 294.75,-184.64 294.75,-184.64 605.88,-184.64 642.15,-184.64 681.69,-193.07 713.62,-202.1"/>
<polygon fill="black" stroke="black" points="722.97,-204.83 712.11,-206.34 719.34,-203.77 713.37,-202.02 713.37,-202.02 713.37,-202.02 719.34,-203.77 714.63,-197.7 722.97,-204.83"/>
<text text-anchor="middle" x="437" y="-187.34" font-family="Helvetica,sans-Serif" font-size="9.00">creates</text>
</g>
<!-- bug&#45;&gt;plan -->
<g id="edge6" class="edge">
<title>bug&#45;&gt;plan</title>
<path fill="none" stroke="black" d="M463.92,-338.08C492.16,-358.17 537.5,-390.42 568.88,-412.75"/>
<polygon fill="black" stroke="black" points="566.73,-415.51 576.91,-418.45 570.79,-409.81 566.73,-415.51"/>
<text text-anchor="middle" x="513.25" y="-391.91" font-family="Helvetica,sans-Serif" font-size="9.00">needs_plan</text>
</g>
<!-- bug&#45;&gt;research -->
<g id="edge11" class="edge">
<title>bug&#45;&gt;research</title>
<path fill="none" stroke="black" stroke-dasharray="5,2" d="M470.12,-301.41C475.88,-298.56 481.91,-295.83 487.75,-293.64 528.12,-278.47 638.83,-253.32 710.98,-237.65"/>
<polygon fill="black" stroke="black" points="720.58,-235.58 711.76,-242.09 716.89,-236.38 710.81,-237.69 710.81,-237.69 710.81,-237.69 716.89,-236.38 709.86,-233.29 720.58,-235.58"/>
<text text-anchor="middle" x="604.88" y="-276.1" font-family="Helvetica,sans-Serif" font-size="9.00">creates</text>
</g>
<!-- implement -->
<g id="node7" class="node">
<title>implement</title>
<path fill="#e2e3e5" stroke="black" d="M1182.5,-357.64C1182.5,-357.64 1109.5,-357.64 1109.5,-357.64 1103.5,-357.64 1097.5,-351.64 1097.5,-345.64 1097.5,-345.64 1097.5,-333.64 1097.5,-333.64 1097.5,-327.64 1103.5,-321.64 1109.5,-321.64 1109.5,-321.64 1182.5,-321.64 1182.5,-321.64 1188.5,-321.64 1194.5,-327.64 1194.5,-333.64 1194.5,-333.64 1194.5,-345.64 1194.5,-345.64 1194.5,-351.64 1188.5,-357.64 1182.5,-357.64"/>
<text text-anchor="middle" x="1146" y="-343.26" font-family="Helvetica,sans-Serif" font-size="10.00">implement</text>
<text text-anchor="middle" x="1146" y="-330.51" font-family="Helvetica,sans-Serif" font-size="10.00">medium / full ⎘</text>
</g>
<!-- bug&#45;&gt;implement -->
<g id="edge5" class="edge">
<title>bug&#45;&gt;implement</title>
<path fill="none" stroke="black" d="M469.88,-315.73C522.35,-309.5 630.25,-297.62 722,-293.39 880.8,-286.07 926.22,-262.5 1079.5,-304.64 1088.88,-307.22 1098.43,-311.32 1107.22,-315.82"/>
<polygon fill="black" stroke="black" points="1105.36,-318.79 1115.81,-320.5 1108.7,-312.64 1105.36,-318.79"/>
<text text-anchor="middle" x="778" y="-296.09" font-family="Helvetica,sans-Serif" font-size="9.00">small_fix</text>
</g>
<!-- spike -->
<g id="node9" class="node">
<title>spike</title>
<path fill="#e2e3e5" stroke="black" d="M1182.5,-503.64C1182.5,-503.64 1109.5,-503.64 1109.5,-503.64 1103.5,-503.64 1097.5,-497.64 1097.5,-491.64 1097.5,-491.64 1097.5,-479.64 1097.5,-479.64 1097.5,-473.64 1103.5,-467.64 1109.5,-467.64 1109.5,-467.64 1182.5,-467.64 1182.5,-467.64 1188.5,-467.64 1194.5,-473.64 1194.5,-479.64 1194.5,-479.64 1194.5,-491.64 1194.5,-491.64 1194.5,-497.64 1188.5,-503.64 1182.5,-503.64"/>
<text text-anchor="middle" x="1146" y="-489.26" font-family="Helvetica,sans-Serif" font-size="10.00">spike</text>
<text text-anchor="middle" x="1146" y="-476.51" font-family="Helvetica,sans-Serif" font-size="10.00">medium / full ⎘</text>
</g>
<!-- bug&#45;&gt;spike -->
<g id="edge12" class="edge">
<title>bug&#45;&gt;spike</title>
<path fill="none" stroke="black" stroke-dasharray="5,2" d="M470.14,-322.45C589.42,-332.91 1001.28,-369.4 1028.5,-376.64 1052.53,-383.03 1060.04,-384.16 1079.5,-399.64 1099.8,-415.78 1117.26,-439.55 1129.04,-458.01"/>
<polygon fill="black" stroke="black" points="1134.19,-466.34 1125.1,-460.19 1132.2,-463.12 1128.93,-457.83 1128.93,-457.83 1128.93,-457.83 1132.2,-463.12 1132.76,-455.47 1134.19,-466.34"/>
<text text-anchor="middle" x="778" y="-357.93" font-family="Helvetica,sans-Serif" font-size="9.00">creates</text>
</g>
<!-- conversation&#45;&gt;bug -->
<g id="edge16" class="edge">
<title>conversation&#45;&gt;bug</title>
<path fill="none" stroke="black" stroke-dasharray="5,2" d="M335.54,-357.15C353.57,-350.42 375.05,-342.4 393.52,-335.5"/>
<polygon fill="black" stroke="black" points="402.85,-332.02 395.06,-339.73 399.31,-333.34 393.48,-335.52 393.48,-335.52 393.48,-335.52 399.31,-333.34 391.91,-331.3 402.85,-332.02"/>
<text text-anchor="middle" x="369.75" y="-353" font-family="Helvetica,sans-Serif" font-size="9.00">creates</text>
</g>
<!-- conversation&#45;&gt;plan -->
<g id="edge13" class="edge">
<title>conversation&#45;&gt;plan</title>
<path fill="none" stroke="black" stroke-dasharray="5,2" d="M322.36,-390.12C331.67,-395.99 342.54,-401.92 353.25,-405.64 416.56,-427.63 493.57,-434.77 545.38,-436.95"/>
<polygon fill="black" stroke="black" points="555.15,-437.31 544.99,-441.44 551.37,-437.17 545.15,-436.95 545.15,-436.95 545.15,-436.95 551.37,-437.17 545.32,-432.45 555.15,-437.31"/>
<text text-anchor="middle" x="437" y="-433.48" font-family="Helvetica,sans-Serif" font-size="9.00">creates</text>
</g>
<!-- conversation&#45;&gt;research -->
<g id="edge14" class="edge">
<title>conversation&#45;&gt;research</title>
<path fill="none" stroke="black" stroke-dasharray="5,2" d="M317.72,-353.28C338.52,-335.8 371.88,-309.71 404.25,-292.64 502.32,-240.92 632.73,-227.39 710.46,-224.18"/>
<polygon fill="black" stroke="black" points="720.31,-223.83 710.48,-228.68 716.54,-223.96 710.32,-224.19 710.32,-224.19 710.32,-224.19 716.54,-223.96 710.16,-219.69 720.31,-223.83"/>
<text text-anchor="middle" x="513.25" y="-261.36" font-family="Helvetica,sans-Serif" font-size="9.00">creates</text>
</g>
<!-- conversation&#45;&gt;implement -->
<g id="edge15" class="edge">
<title>conversation&#45;&gt;implement</title>
<path fill="none" stroke="black" stroke-dasharray="5,2" d="M335.52,-373.21C374.1,-374.7 435.01,-376.81 487.75,-377.64 510.41,-378 516.47,-381.81 538.75,-377.64 600.71,-366.05 609.04,-337.98 671,-326.39 818.25,-298.86 995.66,-317.16 1085.95,-330.05"/>
<polygon fill="black" stroke="black" points="1095.84,-331.49 1085.3,-334.5 1092.1,-330.95 1085.95,-330.05 1085.95,-330.05 1085.95,-330.05 1092.1,-330.95 1086.6,-325.6 1095.84,-331.49"/>
<text text-anchor="middle" x="687.5" y="-329.09" font-family="Helvetica,sans-Serif" font-size="9.00">creates</text>
</g>
<!-- conversation&#45;&gt;spike -->
<g id="edge17" class="edge">
<title>conversation&#45;&gt;spike</title>
<path fill="none" stroke="black" stroke-dasharray="5,2" d="M306.82,-389.94C331.71,-434.05 396.95,-542.64 436,-542.64 436,-542.64 436,-542.64 981.38,-542.64 1024.53,-542.64 1070.71,-524.74 1102.97,-509"/>
<polygon fill="black" stroke="black" points="1111.84,-504.54 1104.93,-513.05 1108.46,-506.23 1102.91,-509.03 1102.91,-509.03 1102.91,-509.03 1108.46,-506.23 1100.88,-505.01 1111.84,-504.54"/>
<text text-anchor="middle" x="687.5" y="-545.34" font-family="Helvetica,sans-Serif" font-size="9.00">creates</text>
</g>
<!-- plan&#45;&gt;research -->
<g id="edge22" class="edge">
<title>plan&#45;&gt;research</title>
<path fill="none" stroke="black" stroke-dasharray="5,2" d="M631.76,-419.37C654.37,-401.99 686.28,-373.78 704,-341.64 722.43,-308.2 700,-288.84 722,-257.64 724.2,-254.52 726.79,-251.62 729.62,-248.96"/>
<polygon fill="black" stroke="black" points="737.19,-242.79 732.28,-252.59 734.26,-245.18 729.44,-249.1 729.44,-249.1 729.44,-249.1 734.26,-245.18 726.6,-245.62 737.19,-242.79"/>
<text text-anchor="middle" x="687.5" y="-385.97" font-family="Helvetica,sans-Serif" font-size="9.00">creates</text>
</g>
<!-- plan&#45;&gt;spike -->
<g id="edge23" class="edge">
<title>plan&#45;&gt;spike</title>
<path fill="none" stroke="black" stroke-dasharray="5,2" d="M653.35,-452.96C659.26,-454.65 665.25,-456.26 671,-457.64 693.38,-463.03 699.17,-463.71 722,-466.64 865.38,-485.05 901.98,-485.48 1046.5,-488.64 1061.16,-488.96 1064.84,-488.98 1079.5,-488.64 1081.63,-488.59 1083.81,-488.53 1086,-488.47"/>
<polygon fill="black" stroke="black" points="1095.86,-488.13 1086.02,-492.97 1092.08,-488.26 1085.86,-488.47 1085.86,-488.47 1085.86,-488.47 1092.08,-488.26 1085.71,-483.98 1095.86,-488.13"/>
<text text-anchor="middle" x="883.12" y="-487.63" font-family="Helvetica,sans-Serif" font-size="9.00">creates</text>
</g>
<!-- triage -->
<g id="node13" class="node">
<title>triage</title>
<path fill="#e2e3e5" stroke="black" d="M814.12,-429.64C814.12,-429.64 741.88,-429.64 741.88,-429.64 735.88,-429.64 729.88,-423.64 729.88,-417.64 729.88,-417.64 729.88,-405.64 729.88,-405.64 729.88,-399.64 735.88,-393.64 741.88,-393.64 741.88,-393.64 814.12,-393.64 814.12,-393.64 820.12,-393.64 826.12,-399.64 826.12,-405.64 826.12,-405.64 826.12,-417.64 826.12,-417.64 826.12,-423.64 820.12,-429.64 814.12,-429.64"/>
<text text-anchor="middle" x="778" y="-414.89" font-family="Helvetica,sans-Serif" font-size="10.00">triage</text>
<text text-anchor="middle" x="778" y="-402.14" font-family="Helvetica,sans-Serif" font-size="10.00">large / read&#45;only</text>
</g>
<!-- plan&#45;&gt;triage -->
<g id="edge8" class="edge">
<title>plan&#45;&gt;triage</title>
<path fill="none" stroke="black" d="M653.09,-430.47C673.3,-427.4 697.11,-423.78 718.43,-420.54"/>
<polygon fill="black" stroke="black" points="718.79,-424.02 728.15,-419.06 717.73,-417.1 718.79,-424.02"/>
<text text-anchor="middle" x="687.5" y="-430.43" font-family="Helvetica,sans-Serif" font-size="9.00">done ⟳</text>
</g>
<!-- decompose -->
<g id="node6" class="node">
<title>decompose</title>
<path fill="#e2e3e5" stroke="black" d="M1016.5,-474.64C1016.5,-474.64 944.25,-474.64 944.25,-474.64 938.25,-474.64 932.25,-468.64 932.25,-462.64 932.25,-462.64 932.25,-450.64 932.25,-450.64 932.25,-444.64 938.25,-438.64 944.25,-438.64 944.25,-438.64 1016.5,-438.64 1016.5,-438.64 1022.5,-438.64 1028.5,-444.64 1028.5,-450.64 1028.5,-450.64 1028.5,-462.64 1028.5,-462.64 1028.5,-468.64 1022.5,-474.64 1016.5,-474.64"/>
<text text-anchor="middle" x="980.38" y="-459.89" font-family="Helvetica,sans-Serif" font-size="10.00">decompose</text>
<text text-anchor="middle" x="980.38" y="-447.14" font-family="Helvetica,sans-Serif" font-size="10.00">large / read&#45;only</text>
</g>
<!-- decompose&#45;&gt;plan -->
<g id="edge19" class="edge">
<title>decompose&#45;&gt;plan</title>
<path fill="none" stroke="black" stroke-dasharray="5,2" d="M931.8,-455.01C871.2,-452.8 763.26,-448.47 671,-442.64 668.75,-442.5 666.45,-442.35 664.13,-442.19"/>
<polygon fill="black" stroke="black" points="654.39,-441.51 664.68,-437.72 658.16,-441.77 664.36,-442.21 664.36,-442.21 664.36,-442.21 658.16,-441.77 664.05,-446.7 654.39,-441.51"/>
<text text-anchor="middle" x="778" y="-453.62" font-family="Helvetica,sans-Serif" font-size="9.00">creates</text>
</g>
<!-- decompose&#45;&gt;implement -->
<g id="edge18" class="edge">
<title>decompose&#45;&gt;implement</title>
<path fill="none" stroke="black" stroke-dasharray="5,2" d="M1007.84,-438.2C1014.59,-433.47 1021.82,-428.38 1028.5,-423.64 1056.19,-403.96 1087.4,-381.44 1110.54,-364.67"/>
<polygon fill="black" stroke="black" points="1118.63,-358.81 1113.18,-368.32 1115.57,-361.03 1110.54,-364.68 1110.54,-364.68 1110.54,-364.68 1115.57,-361.03 1107.9,-361.04 1118.63,-358.81"/>
<text text-anchor="middle" x="1063" y="-412.69" font-family="Helvetica,sans-Serif" font-size="9.00">creates</text>
</g>
<!-- decompose&#45;&gt;spike -->
<g id="edge20" class="edge">
<title>decompose&#45;&gt;spike</title>
<path fill="none" stroke="black" stroke-dasharray="5,2" d="M1028.7,-465.03C1046.69,-468.22 1067.4,-471.89 1086.32,-475.24"/>
<polygon fill="black" stroke="black" points="1096.01,-476.96 1085.38,-479.64 1092.29,-476.3 1086.17,-475.21 1086.17,-475.21 1086.17,-475.21 1092.29,-476.3 1086.95,-470.78 1096.01,-476.96"/>
<text text-anchor="middle" x="1063" y="-476.44" font-family="Helvetica,sans-Serif" font-size="9.00">creates</text>
</g>
<!-- review -->
<g id="node8" class="node">
<title>review</title>
<path fill="#e2e3e5" stroke="black" d="M1347.75,-384.64C1347.75,-384.64 1275.5,-384.64 1275.5,-384.64 1269.5,-384.64 1263.5,-378.64 1263.5,-372.64 1263.5,-372.64 1263.5,-360.64 1263.5,-360.64 1263.5,-354.64 1269.5,-348.64 1275.5,-348.64 1275.5,-348.64 1347.75,-348.64 1347.75,-348.64 1353.75,-348.64 1359.75,-354.64 1359.75,-360.64 1359.75,-360.64 1359.75,-372.64 1359.75,-372.64 1359.75,-378.64 1353.75,-384.64 1347.75,-384.64"/>
<text text-anchor="middle" x="1311.62" y="-369.89" font-family="Helvetica,sans-Serif" font-size="10.00">review</text>
<text text-anchor="middle" x="1311.62" y="-357.14" font-family="Helvetica,sans-Serif" font-size="10.00">large / read&#45;only</text>
</g>
<!-- implement&#45;&gt;review -->
<g id="edge7" class="edge">
<title>implement&#45;&gt;review</title>
<path fill="none" stroke="#856404" stroke-width="2" d="M1194.77,-347.52C1212.66,-350.47 1233.2,-353.86 1251.97,-356.96"/>
<polygon fill="#856404" stroke="#856404" stroke-width="2" points="1249.66,-360.13 1260.09,-358.3 1250.8,-353.22 1249.66,-360.13"/>
<text text-anchor="middle" x="1229" y="-358.26" font-family="Helvetica,sans-Serif" font-size="9.00">done</text>
</g>
<!-- steward_quality -->
<g id="node10" class="node">
<title>steward_quality</title>
<path fill="#fff3cd" stroke="black" d="M175.29,-94.1C175.29,-94.1 175.29,-101.18 175.29,-101.18 175.29,-104.72 171.95,-109.42 168.6,-110.59 168.6,-110.59 138.83,-120.95 138.83,-120.95 135.48,-122.12 128.6,-123.28 125.06,-123.28 125.06,-123.28 78.19,-123.28 78.19,-123.28 74.65,-123.28 67.77,-122.12 64.42,-120.95 64.42,-120.95 34.65,-110.59 34.65,-110.59 31.3,-109.42 27.96,-104.72 27.96,-101.18 27.96,-101.18 27.96,-94.1 27.96,-94.1 27.96,-90.56 31.3,-85.86 34.65,-84.69 34.65,-84.69 64.42,-74.33 64.42,-74.33 67.77,-73.16 74.65,-72 78.19,-72 78.19,-72 125.06,-72 125.06,-72 128.6,-72 135.48,-73.16 138.83,-74.33 138.83,-74.33 168.6,-84.69 168.6,-84.69 171.95,-85.86 175.29,-90.56 175.29,-94.1"/>
<text text-anchor="middle" x="101.62" y="-100.89" font-family="Helvetica,sans-Serif" font-size="10.00">steward_quality</text>
<text text-anchor="middle" x="101.62" y="-88.14" font-family="Helvetica,sans-Serif" font-size="10.00">large / read&#45;only</text>
</g>
<!-- implement&#45;&gt;steward_quality -->
<g id="edge24" class="edge">
<title>implement&#45;&gt;steward_quality</title>
<path fill="none" stroke="#856404" stroke-dasharray="1,5" d="M1122.28,-321.19C1110.08,-311.85 1094.5,-300.79 1079.5,-292.64 976.55,-236.72 947.29,-226.5 834,-196.64 772.62,-180.46 368.11,-130.02 188.41,-108.05"/>
<polygon fill="#856404" stroke="#856404" points="188.41,-108.05 181.97,-111.29 176.5,-106.59 182.94,-103.35 188.41,-108.05"/>
</g>
<!-- steward_security -->
<g id="node11" class="node">
<title>steward_security</title>
<path fill="#fff3cd" stroke="black" d="M177.59,-22.1C177.59,-22.1 177.59,-29.18 177.59,-29.18 177.59,-32.72 174.23,-37.39 170.88,-38.52 170.88,-38.52 139.8,-49.02 139.8,-49.02 136.44,-50.15 129.55,-51.28 126.01,-51.28 126.01,-51.28 77.24,-51.28 77.24,-51.28 73.7,-51.28 66.81,-50.15 63.45,-49.02 63.45,-49.02 32.37,-38.52 32.37,-38.52 29.02,-37.39 25.66,-32.72 25.66,-29.18 25.66,-29.18 25.66,-22.1 25.66,-22.1 25.66,-18.56 29.02,-13.89 32.37,-12.76 32.37,-12.76 63.45,-2.26 63.45,-2.26 66.81,-1.13 73.7,0 77.24,0 77.24,0 126.01,0 126.01,0 129.55,0 136.44,-1.13 139.8,-2.26 139.8,-2.26 170.88,-12.76 170.88,-12.76 174.23,-13.89 177.59,-18.56 177.59,-22.1"/>
<text text-anchor="middle" x="101.62" y="-28.89" font-family="Helvetica,sans-Serif" font-size="10.00">steward_security</text>
<text text-anchor="middle" x="101.62" y="-16.14" font-family="Helvetica,sans-Serif" font-size="10.00">large / read&#45;only</text>
</g>
<!-- implement&#45;&gt;steward_security -->
<g id="edge25" class="edge">
<title>implement&#45;&gt;steward_security</title>
<path fill="none" stroke="#856404" stroke-dasharray="1,5" d="M1132.61,-321.58C1113.48,-295.13 1074.14,-246.24 1028.5,-220.64 884.11,-139.64 393.06,-65.3 190.8,-37.35"/>
<polygon fill="#856404" stroke="#856404" points="190.68,-37.33 184.19,-40.48 178.79,-35.7 185.28,-32.55 190.68,-37.33"/>
</g>
<!-- test -->
<g id="node12" class="node">
<title>test</title>
<path fill="#e2e3e5" stroke="black" d="M1340.25,-330.64C1340.25,-330.64 1283,-330.64 1283,-330.64 1277,-330.64 1271,-324.64 1271,-318.64 1271,-318.64 1271,-306.64 1271,-306.64 1271,-300.64 1277,-294.64 1283,-294.64 1283,-294.64 1340.25,-294.64 1340.25,-294.64 1346.25,-294.64 1352.25,-300.64 1352.25,-306.64 1352.25,-306.64 1352.25,-318.64 1352.25,-318.64 1352.25,-324.64 1346.25,-330.64 1340.25,-330.64"/>
<text text-anchor="middle" x="1311.62" y="-315.89" font-family="Helvetica,sans-Serif" font-size="10.00">test</text>
<text text-anchor="middle" x="1311.62" y="-303.14" font-family="Helvetica,sans-Serif" font-size="10.00">medium / full</text>
</g>
<!-- implement&#45;&gt;test -->
<g id="edge21" class="edge">
<title>implement&#45;&gt;test</title>
<path fill="none" stroke="black" stroke-dasharray="5,2" d="M1194.77,-331.76C1215.16,-328.39 1238.98,-324.46 1259.7,-321.04"/>
<polygon fill="black" stroke="black" points="1269.34,-319.45 1260.2,-325.52 1265.6,-320.07 1259.47,-321.08 1259.47,-321.08 1259.47,-321.08 1265.6,-320.07 1258.74,-316.64 1269.34,-319.45"/>
<text text-anchor="middle" x="1229" y="-331.26" font-family="Helvetica,sans-Serif" font-size="9.00">creates</text>
</g>
<!-- triage&#45;&gt;decompose -->
<g id="edge10" class="edge">
<title>triage&#45;&gt;decompose</title>
<path fill="none" stroke="#856404" stroke-width="2" d="M826.35,-421.28C852.34,-426.68 885.13,-433.66 914.25,-440.39 916.38,-440.88 918.55,-441.39 920.73,-441.91"/>
<polygon fill="#856404" stroke="#856404" stroke-width="2" points="918.28,-444.92 928.82,-443.85 919.91,-438.11 918.28,-444.92"/>
<text text-anchor="middle" x="883.12" y="-443.09" font-family="Helvetica,sans-Serif" font-size="9.00">decompose ⟳</text>
</g>
<!-- triage&#45;&gt;implement -->
<g id="edge9" class="edge">
<title>triage&#45;&gt;implement</title>
<path fill="none" stroke="#856404" stroke-width="2" d="M826.47,-402.3C892.94,-389.23 1013.66,-365.48 1085.87,-351.27"/>
<polygon fill="#856404" stroke="#856404" stroke-width="2" points="1084.92,-355.03 1094.06,-349.66 1083.57,-348.16 1084.92,-355.03"/>
<text text-anchor="middle" x="980.38" y="-383.13" font-family="Helvetica,sans-Serif" font-size="9.00">implement ⟳</text>
</g>
<!-- triage&#45;&gt;steward_quality -->
<g id="edge26" class="edge">
<title>triage&#45;&gt;steward_quality</title>
<path fill="none" stroke="#856404" stroke-dasharray="1,5" d="M744.94,-393.24C736.44,-387.02 727.97,-379.4 722,-370.64 704.88,-345.52 718.41,-331.41 704,-304.64 652.68,-209.3 636.75,-171.67 538.75,-125.64 478.78,-97.47 297.65,-94.71 188.59,-95.79"/>
<polygon fill="#856404" stroke="#856404" points="188.56,-95.79 182.6,-99.86 176.56,-95.93 182.51,-91.86 188.56,-95.79"/>
</g>
<!-- triage&#45;&gt;steward_security -->
<g id="edge27" class="edge">
<title>triage&#45;&gt;steward_security</title>
<path fill="none" stroke="#856404" stroke-dasharray="1,5" d="M743.63,-393.29C735.31,-387.15 727.27,-379.56 722,-370.64 692.32,-320.43 720.45,-296.6 704,-240.64 688.8,-188.94 687.11,-172.36 653,-130.64 613.1,-81.85 598.15,-67.72 538.75,-46.64 423.85,-5.86 281.17,-8.03 190.98,-15.28"/>
<polygon fill="#856404" stroke="#856404" points="190.92,-15.29 185.28,-19.78 178.96,-16.31 184.6,-11.81 190.92,-15.29"/>
</g>
<!-- leg1 -->
<g id="node14" class="node">
<title>leg1</title>
<text text-anchor="start" x="51.38" y="-375.96" font-family="Helvetica,sans-Serif" font-size="9.00">Green = user&#45;visible</text>
<text text-anchor="start" x="51.38" y="-364.71" font-family="Helvetica,sans-Serif" font-size="9.00">Gray = agent&#45;initiated</text>
<text text-anchor="start" x="51.38" y="-353.46" font-family="Helvetica,sans-Serif" font-size="9.00">Yellow = steward</text>
</g>
<!-- leg2 -->
<g id="node15" class="node">
<title>leg2</title>
<text text-anchor="start" x="24" y="-470.21" font-family="Helvetica,sans-Serif" font-size="9.00">Solid arrow = continuation</text>
<text text-anchor="start" x="24" y="-458.96" font-family="Helvetica,sans-Serif" font-size="9.00">Dashed arrow = creates sub&#45;task</text>
<text text-anchor="start" x="24" y="-447.71" font-family="Helvetica,sans-Serif" font-size="9.00">Bold arrow = requires approval</text>
<text text-anchor="start" x="24" y="-436.46" font-family="Helvetica,sans-Serif" font-size="9.00">Dotted diamond = steward review</text>
<text text-anchor="start" x="24" y="-425.21" font-family="Helvetica,sans-Serif" font-size="9.00">⟳ = keep context (session fork)</text>
<text text-anchor="start" x="24" y="-413.96" font-family="Helvetica,sans-Serif" font-size="9.00">⎘ = own worktree</text>
</g>
</g>
</svg>
