<?xml version="1.0" encoding="UTF-8" standalone="no"?>
<!DOCTYPE svg PUBLIC "-//W3C//DTD SVG 1.1//EN"
 "http://www.w3.org/Graphics/SVG/1.1/DTD/svg11.dtd">
<!-- Generated by graphviz version 12.2.1 (0)
 -->
<!-- Title: task_types Pages: 1 -->
<svg width="1352pt" height="717pt"
 viewBox="0.00 0.00 1352.00 716.64" xmlns="http://www.w3.org/2000/svg" xmlns:xlink="http://www.w3.org/1999/xlink">
<g id="graph0" class="graph" transform="scale(1 1) rotate(0) translate(4 712.64)">
<title>task_types</title>
<polygon fill="white" stroke="none" points="-4,4 -4,-712.64 1348,-712.64 1348,4 -4,4"/>
<g id="clust1" class="cluster">
<title>cluster_legend</title>
<polygon fill="none" stroke="black" stroke-dasharray="5,2" points="8,-539.64 8,-700.64 195.25,-700.64 195.25,-539.64 8,-539.64"/>
<text text-anchor="middle" x="101.62" y="-687.14" font-family="Helvetica,sans-Serif" font-size="10.00">Legend</text>
</g>
<!-- user -->
<g id="node1" class="node">
<title>user</title>
<polygon fill="#cce5ff" stroke="black" points="129.61,-517.2 101.62,-529.64 73.64,-517.2 73.67,-497.08 129.58,-497.08 129.61,-517.2"/>
<text text-anchor="middle" x="101.62" y="-508.51" font-family="Helvetica,sans-Serif" font-size="10.00">user</text>
</g>
<!-- bug -->
<g id="node2" class="node">
<title>bug</title>
<path fill="#d4edda" stroke="black" d="M457.75,-478.64C457.75,-478.64 416.25,-478.64 416.25,-478.64 410.25,-478.64 404.25,-472.64 404.25,-466.64 404.25,-466.64 404.25,-454.64 404.25,-454.64 404.25,-448.64 410.25,-442.64 416.25,-442.64 416.25,-442.64 457.75,-442.64 457.75,-442.64 463.75,-442.64 469.75,-448.64 469.75,-454.64 469.75,-454.64 469.75,-466.64 469.75,-466.64 469.75,-472.64 463.75,-478.64 457.75,-478.64"/>
<text text-anchor="middle" x="437" y="-463.89" font-family="Helvetica,sans-Serif" font-size="10.00">bug</text>
<text text-anchor="middle" x="437" y="-451.14" font-family="Helvetica,sans-Serif" font-size="10.00">large / full</text>
</g>
<!-- user&#45;&gt;bug -->
<g id="edge1" class="edge">
<title>user&#45;&gt;bug</title>
<path fill="none" stroke="black" stroke-dasharray="5,2" d="M130.01,-510.05C173.67,-507.23 261.65,-500.43 335.25,-487.64 358.19,-483.65 363.76,-481.67 386.25,-475.64 388.59,-475.01 390.98,-474.35 393.39,-473.67"/>
<polygon fill="black" stroke="black" points="402.8,-470.95 394.44,-478.05 399.17,-472 393.19,-473.73 393.19,-473.73 393.19,-473.73 399.17,-472 391.94,-469.41 402.8,-470.95"/>
<text text-anchor="middle" x="295.75" y="-501.39" font-family="Helvetica,sans-Serif" font-size="9.00">creates</text>
</g>
<!-- conversation -->
<g id="node3" class="node">
<title>conversation</title>
<path fill="#d4edda" stroke="black" d="M323.25,-478.64C323.25,-478.64 268.25,-478.64 268.25,-478.64 262.25,-478.64 256.25,-472.64 256.25,-466.64 256.25,-466.64 256.25,-454.64 256.25,-454.64 256.25,-448.64 262.25,-442.64 268.25,-442.64 268.25,-442.64 323.25,-442.64 323.25,-442.64 329.25,-442.64 335.25,-448.64 335.25,-454.64 335.25,-454.64 335.25,-466.64 335.25,-466.64 335.25,-472.64 329.25,-478.64 323.25,-478.64"/>
<text text-anchor="middle" x="295.75" y="-463.89" font-family="Helvetica,sans-Serif" font-size="10.00">conversation</text>
<text text-anchor="middle" x="295.75" y="-451.14" font-family="Helvetica,sans-Serif" font-size="10.00">large / full</text>
</g>
<!-- user&#45;&gt;conversation -->
<g id="edge2" class="edge">
<title>user&#45;&gt;conversation</title>
<path fill="none" stroke="black" stroke-dasharray="5,2" d="M129.74,-504.44C159.68,-496.49 208.5,-483.53 245.29,-473.77"/>
<polygon fill="black" stroke="black" points="254.62,-471.29 246.11,-478.21 250.97,-472.26 244.96,-473.86 244.96,-473.86 244.96,-473.86 250.97,-472.26 243.8,-469.51 254.62,-471.29"/>
<text text-anchor="middle" x="221.75" y="-485.79" font-family="Helvetica,sans-Serif" font-size="9.00">creates</text>
</g>
<!-- plan -->
<g id="node4" class="node">
<title>plan</title>
<path fill="#d4edda" stroke="black" d="M641,-404.64C641,-404.64 568.75,-404.64 568.75,-404.64 562.75,-404.64 556.75,-398.64 556.75,-392.64 556.75,-392.64 556.75,-380.64 556.75,-380.64 556.75,-374.64 562.75,-368.64 568.75,-368.64 568.75,-368.64 641,-368.64 641,-368.64 647,-368.64 653,-374.64 653,-380.64 653,-380.64 653,-392.64 653,-392.64 653,-398.64 647,-404.64 641,-404.64"/>
<text text-anchor="middle" x="604.88" y="-389.89" font-family="Helvetica,sans-Serif" font-size="10.00">plan</text>
<text text-anchor="middle" x="604.88" y="-377.14" font-family="Helvetica,sans-Serif" font-size="10.00">large / read&#45;only</text>
</g>
<!-- user&#45;&gt;plan -->
<g id="edge3" class="edge">
<title>user&#45;&gt;plan</title>
<path fill="none" stroke="black" stroke-dasharray="5,2" d="M109.1,-496.61C132.58,-444.29 219.04,-269.85 353.25,-206.39 450.55,-160.38 549.42,-297.48 587.52,-358.71"/>
<polygon fill="black" stroke="black" points="592.68,-367.15 583.62,-360.96 590.71,-363.92 587.47,-358.62 587.47,-358.62 587.47,-358.62 590.71,-363.92 591.31,-356.27 592.68,-367.15"/>
<text text-anchor="middle" x="369.75" y="-209.09" font-family="Helvetica,sans-Serif" font-size="9.00">creates</text>
</g>
<!-- research -->
<g id="node5" class="node">
<title>research</title>
<path fill="#d4edda" stroke="black" d="M822,-529.64C822,-529.64 734,-529.64 734,-529.64 728,-529.64 722,-523.64 722,-517.64 722,-517.64 722,-505.64 722,-505.64 722,-499.64 728,-493.64 734,-493.64 734,-493.64 822,-493.64 822,-493.64 828,-493.64 834,-499.64 834,-505.64 834,-505.64 834,-517.64 834,-517.64 834,-523.64 828,-529.64 822,-529.64"/>
<text text-anchor="middle" x="778" y="-514.89" font-family="Helvetica,sans-Serif" font-size="10.00">research</text>
<text text-anchor="middle" x="778" y="-502.14" font-family="Helvetica,sans-Serif" font-size="10.00">medium / read&#45;only</text>
</g>
<!-- user&#45;&gt;research -->
<g id="edge4" class="edge">
<title>user&#45;&gt;research</title>
<path fill="none" stroke="black" stroke-dasharray="5,2" d="M128.7,-517.9C147.33,-522.5 172.94,-529.06 195.25,-535.64 239.94,-548.82 248.16,-568.64 294.75,-568.64 294.75,-568.64 294.75,-568.64 605.88,-568.64 651,-568.64 699.54,-550.58 733.36,-534.79"/>
<polygon fill="black" stroke="black" points="742.26,-530.52 735.19,-538.9 738.85,-532.15 733.25,-534.85 733.25,-534.85 733.25,-534.85 738.85,-532.15 731.3,-530.79 742.26,-530.52"/>
<text text-anchor="middle" x="437" y="-571.34" font-family="Helvetica,sans-Serif" font-size="9.00">creates</text>
</g>
<!-- bug&#45;&gt;plan -->
<g id="edge6" class="edge">
<title>bug&#45;&gt;plan</title>
<path fill="none" stroke="black" d="M457.05,-442.23C465.82,-434.58 476.72,-426.15 487.75,-420.39 505.64,-411.04 526.47,-403.96 545.5,-398.75"/>
<polygon fill="black" stroke="black" points="546.21,-402.18 555.01,-396.28 544.45,-395.41 546.21,-402.18"/>
<text text-anchor="middle" x="513.25" y="-423.09" font-family="Helvetica,sans-Serif" font-size="9.00">needs_plan</text>
</g>
<!-- bug&#45;&gt;research -->
<g id="edge11" class="edge">
<title>bug&#45;&gt;research</title>
<path fill="none" stroke="black" stroke-dasharray="5,2" d="M470.2,-465.48C525.22,-473.76 638.4,-490.79 710.84,-501.69"/>
<polygon fill="black" stroke="black" points="720.46,-503.13 709.9,-506.1 716.72,-502.57 710.57,-501.65 710.57,-501.65 710.57,-501.65 716.72,-502.57 711.24,-497.2 720.46,-503.13"/>
<text text-anchor="middle" x="604.88" y="-495.57" font-family="Helvetica,sans-Serif" font-size="9.00">creates</text>
</g>
<!-- implement -->
<g id="node7" class="node">
<title>implement</title>
<path fill="#e2e3e5" stroke="black" d="M1166.75,-411.64C1166.75,-411.64 1109.5,-411.64 1109.5,-411.64 1103.5,-411.64 1097.5,-405.64 1097.5,-399.64 1097.5,-399.64 1097.5,-387.64 1097.5,-387.64 1097.5,-381.64 1103.5,-375.64 1109.5,-375.64 1109.5,-375.64 1166.75,-375.64 1166.75,-375.64 1172.75,-375.64 1178.75,-381.64 1178.75,-387.64 1178.75,-387.64 1178.75,-399.64 1178.75,-399.64 1178.75,-405.64 1172.75,-411.64 1166.75,-411.64"/>
<text text-anchor="middle" x="1138.12" y="-396.89" font-family="Helvetica,sans-Serif" font-size="10.00">implement</text>
<text text-anchor="middle" x="1138.12" y="-384.14" font-family="Helvetica,sans-Serif" font-size="10.00">medium / full</text>
</g>
<!-- bug&#45;&gt;implement -->
<g id="edge5" class="edge">
<title>bug&#45;&gt;implement</title>
<path fill="none" stroke="black" d="M469.92,-459.76C563.9,-456.8 847.56,-445.16 1079.5,-407.64 1081.67,-407.29 1083.88,-406.9 1086.11,-406.48"/>
<polygon fill="black" stroke="black" points="1086.73,-409.92 1095.82,-404.47 1085.32,-403.07 1086.73,-409.92"/>
<text text-anchor="middle" x="778" y="-449.43" font-family="Helvetica,sans-Serif" font-size="9.00">small_fix</text>
</g>
<!-- conversation&#45;&gt;bug -->
<g id="edge15" class="edge">
<title>conversation&#45;&gt;bug</title>
<path fill="none" stroke="black" stroke-dasharray="5,2" d="M335.54,-460.64C353.4,-460.64 374.65,-460.64 393,-460.64"/>
<polygon fill="black" stroke="black" points="402.77,-460.64 392.77,-465.14 398.99,-460.64 392.77,-460.64 392.77,-460.64 392.77,-460.64 398.99,-460.64 392.77,-456.14 402.77,-460.64"/>
<text text-anchor="middle" x="369.75" y="-463.34" font-family="Helvetica,sans-Serif" font-size="9.00">creates</text>
</g>
<!-- conversation&#45;&gt;plan -->
<g id="edge12" class="edge">
<title>conversation&#45;&gt;plan</title>
<path fill="none" stroke="black" stroke-dasharray="5,2" d="M335.54,-445.92C355.86,-438.44 381.24,-429.46 404.25,-422.39 440.91,-411.12 450.07,-407.78 487.75,-400.64 506.42,-397.1 526.97,-394.28 545.52,-392.12"/>
<polygon fill="black" stroke="black" points="555.26,-391.03 545.83,-396.61 551.51,-391.45 545.33,-392.14 545.33,-392.14 545.33,-392.14 551.51,-391.45 544.83,-387.67 555.26,-391.03"/>
<text text-anchor="middle" x="437" y="-425.09" font-family="Helvetica,sans-Serif" font-size="9.00">creates</text>
</g>
<!-- conversation&#45;&gt;research -->
<g id="edge13" class="edge">
<title>conversation&#45;&gt;research</title>
<path fill="none" stroke="black" stroke-dasharray="5,2" d="M335.54,-471.69C355.87,-477.14 381.25,-483.44 404.25,-487.64 521.39,-509.05 551.95,-510.04 671,-512.64 683.87,-512.92 697.61,-512.97 710.79,-512.9"/>
<polygon fill="black" stroke="black" points="720.49,-512.83 710.52,-517.41 716.71,-512.86 710.49,-512.91 710.49,-512.91 710.49,-512.91 716.71,-512.86 710.45,-508.41 720.49,-512.83"/>
<text text-anchor="middle" x="513.25" y="-510.04" font-family="Helvetica,sans-Serif" font-size="9.00">creates</text>
</g>
<!-- conversation&#45;&gt;implement -->
<g id="edge14" class="edge">
<title>conversation&#45;&gt;implement</title>
<path fill="none" stroke="black" stroke-dasharray="5,2" d="M298.99,-442.29C306.74,-387.95 337.59,-231.64 436,-231.64 436,-231.64 436,-231.64 981.38,-231.64 1029.17,-231.64 1045.16,-242.4 1079.5,-275.64 1105.02,-300.33 1120.81,-338.66 1129.27,-364.89"/>
<polygon fill="black" stroke="black" points="1132.1,-374.15 1124.88,-365.9 1131,-370.53 1129.18,-364.58 1129.18,-364.58 1129.18,-364.58 1131,-370.53 1133.49,-363.27 1132.1,-374.15"/>
<text text-anchor="middle" x="687.5" y="-234.34" font-family="Helvetica,sans-Serif" font-size="9.00">creates</text>
</g>
<!-- plan&#45;&gt;research -->
<g id="edge19" class="edge">
<title>plan&#45;&gt;research</title>
<path fill="none" stroke="black" stroke-dasharray="5,2" d="M631.13,-405.08C660.78,-426.75 710.11,-462.78 743.09,-486.87"/>
<polygon fill="black" stroke="black" points="750.94,-492.6 740.21,-490.34 747.89,-490.37 742.87,-486.71 742.87,-486.71 742.87,-486.71 747.89,-490.37 745.52,-483.07 750.94,-492.6"/>
<text text-anchor="middle" x="687.5" y="-459.32" font-family="Helvetica,sans-Serif" font-size="9.00">creates</text>
</g>
<!-- triage -->
<g id="node12" class="node">
<title>triage</title>
<path fill="#e2e3e5" stroke="black" d="M814.12,-410.64C814.12,-410.64 741.88,-410.64 741.88,-410.64 735.88,-410.64 729.88,-404.64 729.88,-398.64 729.88,-398.64 729.88,-386.64 729.88,-386.64 729.88,-380.64 735.88,-374.64 741.88,-374.64 741.88,-374.64 814.12,-374.64 814.12,-374.64 820.12,-374.64 826.12,-380.64 826.12,-386.64 826.12,-386.64 826.12,-398.64 826.12,-398.64 826.12,-404.64 820.12,-410.64 814.12,-410.64"/>
<text text-anchor="middle" x="778" y="-395.89" font-family="Helvetica,sans-Serif" font-size="10.00">triage</text>
<text text-anchor="middle" x="778" y="-383.14" font-family="Helvetica,sans-Serif" font-size="10.00">large / read&#45;only</text>
</g>
<!-- plan&#45;&gt;triage -->
<g id="edge8" class="edge">
<title>plan&#45;&gt;triage</title>
<path fill="none" stroke="black" d="M653.3,-386.39C669.4,-386.47 687.49,-386.73 704,-387.39 708.64,-387.57 713.45,-387.81 718.27,-388.09"/>
<polygon fill="black" stroke="black" points="717.8,-391.56 728,-388.69 718.23,-384.58 717.8,-391.56"/>
<text text-anchor="middle" x="687.5" y="-390.09" font-family="Helvetica,sans-Serif" font-size="9.00">done ⟳</text>
</g>
<!-- decompose -->
<g id="node6" class="node">
<title>decompose</title>
<path fill="#e2e3e5" stroke="black" d="M1016.5,-371.64C1016.5,-371.64 944.25,-371.64 944.25,-371.64 938.25,-371.64 932.25,-365.64 932.25,-359.64 932.25,-359.64 932.25,-347.64 932.25,-347.64 932.25,-341.64 938.25,-335.64 944.25,-335.64 944.25,-335.64 1016.5,-335.64 1016.5,-335.64 1022.5,-335.64 1028.5,-341.64 1028.5,-347.64 1028.5,-347.64 1028.5,-359.64 1028.5,-359.64 1028.5,-365.64 1022.5,-371.64 1016.5,-371.64"/>
<text text-anchor="middle" x="980.38" y="-356.89" font-family="Helvetica,sans-Serif" font-size="10.00">decompose</text>
<text text-anchor="middle" x="980.38" y="-344.14" font-family="Helvetica,sans-Serif" font-size="10.00">large / read&#45;only</text>
</g>
<!-- decompose&#45;&gt;plan -->
<g id="edge17" class="edge">
<title>decompose&#45;&gt;plan</title>
<path fill="none" stroke="black" stroke-dasharray="5,2" d="M932.15,-350.01C880.32,-346.91 794.82,-344.36 722,-354.39 702.77,-357.04 682.22,-362.01 663.84,-367.26"/>
<polygon fill="black" stroke="black" points="654.46,-370.03 662.78,-362.88 658.09,-368.96 664.05,-367.2 664.05,-367.2 664.05,-367.2 658.09,-368.96 665.33,-371.51 654.46,-370.03"/>
<text text-anchor="middle" x="778" y="-357.09" font-family="Helvetica,sans-Serif" font-size="9.00">creates</text>
</g>
<!-- decompose&#45;&gt;implement -->
<g id="edge16" class="edge">
<title>decompose&#45;&gt;implement</title>
<path fill="none" stroke="black" stroke-dasharray="5,2" d="M1028.95,-365.86C1047.11,-370.52 1067.88,-375.86 1086.33,-380.59"/>
<polygon fill="black" stroke="black" points="1096,-383.08 1085.19,-384.95 1092.34,-382.14 1086.31,-380.59 1086.31,-380.59 1086.31,-380.59 1092.34,-382.14 1087.43,-376.23 1096,-383.08"/>
<text text-anchor="middle" x="1063" y="-381.1" font-family="Helvetica,sans-Serif" font-size="9.00">creates</text>
</g>
<!-- review -->
<g id="node8" class="node">
<title>review</title>
<path fill="#e2e3e5" stroke="black" d="M1332,-438.64C1332,-438.64 1259.75,-438.64 1259.75,-438.64 1253.75,-438.64 1247.75,-432.64 1247.75,-426.64 1247.75,-426.64 1247.75,-414.64 1247.75,-414.64 1247.75,-408.64 1253.75,-402.64 1259.75,-402.64 1259.75,-402.64 1332,-402.64 1332,-402.64 1338,-402.64 1344,-408.64 1344,-414.64 1344,-414.64 1344,-426.64 1344,-426.64 1344,-432.64 1338,-438.64 1332,-438.64"/>
<text text-anchor="middle" x="1295.88" y="-423.89" font-family="Helvetica,sans-Serif" font-size="10.00">review</text>
<text text-anchor="middle" x="1295.88" y="-411.14" font-family="Helvetica,sans-Serif" font-size="10.00">large / read&#45;only</text>
</g>
<!-- implement&#45;&gt;review -->
<g id="edge7" class="edge">
<title>implement&#45;&gt;review</title>
<path fill="none" stroke="#856404" stroke-width="2" d="M1179.23,-400.59C1196.56,-403.6 1217.17,-407.17 1236.16,-410.46"/>
<polygon fill="#856404" stroke="#856404" stroke-width="2" points="1233.99,-413.64 1244.44,-411.9 1235.19,-406.74 1233.99,-413.64"/>
<text text-anchor="middle" x="1213.25" y="-411.46" font-family="Helvetica,sans-Serif" font-size="9.00">done</text>
</g>
<!-- steward_quality -->
<g id="node9" class="node">
<title>steward_quality</title>
<path fill="#fff3cd" stroke="black" d="M175.29,-94.1C175.29,-94.1 175.29,-101.18 175.29,-101.18 175.29,-104.72 171.95,-109.42 168.6,-110.59 168.6,-110.59 138.83,-120.95 138.83,-120.95 135.48,-122.12 128.6,-123.28 125.06,-123.28 125.06,-123.28 78.19,-123.28 78.19,-123.28 74.65,-123.28 67.77,-122.12 64.42,-120.95 64.42,-120.95 34.65,-110.59 34.65,-110.59 31.3,-109.42 27.96,-104.72 27.96,-101.18 27.96,-101.18 27.96,-94.1 27.96,-94.1 27.96,-90.56 31.3,-85.86 34.65,-84.69 34.65,-84.69 64.42,-74.33 64.42,-74.33 67.77,-73.16 74.65,-72 78.19,-72 78.19,-72 125.06,-72 125.06,-72 128.6,-72 135.48,-73.16 138.83,-74.33 138.83,-74.33 168.6,-84.69 168.6,-84.69 171.95,-85.86 175.29,-90.56 175.29,-94.1"/>
<text text-anchor="middle" x="101.62" y="-100.89" font-family="Helvetica,sans-Serif" font-size="10.00">steward_quality</text>
<text text-anchor="middle" x="101.62" y="-88.14" font-family="Helvetica,sans-Serif" font-size="10.00">large / read&#45;only</text>
</g>
<!-- implement&#45;&gt;steward_quality -->
<g id="edge20" class="edge">
<title>implement&#45;&gt;steward_quality</title>
<path fill="none" stroke="#856404" stroke-dasharray="1,5" d="M1111.9,-375.28C1090.56,-360.45 1058.72,-339.93 1028.5,-326.64 953.87,-293.81 925.38,-312.18 852,-276.64 754.44,-229.39 753.32,-176.69 653,-135.64 541.72,-90.11 506.27,-97.8 386.25,-90.64 319.88,-86.68 244.65,-88.84 188.35,-91.77"/>
<polygon fill="#856404" stroke="#856404" points="188.43,-91.77 182.66,-96.09 176.45,-92.42 182.22,-88.1 188.43,-91.77"/>
</g>
<!-- steward_security -->
<g id="node10" class="node">
<title>steward_security</title>
<path fill="#fff3cd" stroke="black" d="M177.59,-22.1C177.59,-22.1 177.59,-29.18 177.59,-29.18 177.59,-32.72 174.23,-37.39 170.88,-38.52 170.88,-38.52 139.8,-49.02 139.8,-49.02 136.44,-50.15 129.55,-51.28 126.01,-51.28 126.01,-51.28 77.24,-51.28 77.24,-51.28 73.7,-51.28 66.81,-50.15 63.45,-49.02 63.45,-49.02 32.37,-38.52 32.37,-38.52 29.02,-37.39 25.66,-32.72 25.66,-29.18 25.66,-29.18 25.66,-22.1 25.66,-22.1 25.66,-18.56 29.02,-13.89 32.37,-12.76 32.37,-12.76 63.45,-2.26 63.45,-2.26 66.81,-1.13 73.7,0 77.24,0 77.24,0 126.01,0 126.01,0 129.55,0 136.44,-1.13 139.8,-2.26 139.8,-2.26 170.88,-12.76 170.88,-12.76 174.23,-13.89 177.59,-18.56 177.59,-22.1"/>
<text text-anchor="middle" x="101.62" y="-28.89" font-family="Helvetica,sans-Serif" font-size="10.00">steward_security</text>
<text text-anchor="middle" x="101.62" y="-16.14" font-family="Helvetica,sans-Serif" font-size="10.00">large / read&#45;only</text>
</g>
<!-- implement&#45;&gt;steward_security -->
<g id="edge21" class="edge">
<title>implement&#45;&gt;steward_security</title>
<path fill="none" stroke="#856404" stroke-dasharray="1,5" d="M1122,-375.2C1110.93,-362.26 1095.17,-344.97 1079.5,-331.64 980.31,-247.24 949.86,-231.13 834,-171.64 757.13,-132.17 736.63,-122.41 653,-100.64 493.15,-59.03 300.81,-39.53 191.03,-31.17"/>
<polygon fill="#856404" stroke="#856404" points="190.92,-31.17 184.64,-34.71 178.95,-30.28 185.23,-26.73 190.92,-31.17"/>
</g>
<!-- test -->
<g id="node11" class="node">
<title>test</title>
<path fill="#e2e3e5" stroke="black" d="M1324.5,-384.64C1324.5,-384.64 1267.25,-384.64 1267.25,-384.64 1261.25,-384.64 1255.25,-378.64 1255.25,-372.64 1255.25,-372.64 1255.25,-360.64 1255.25,-360.64 1255.25,-354.64 1261.25,-348.64 1267.25,-348.64 1267.25,-348.64 1324.5,-348.64 1324.5,-348.64 1330.5,-348.64 1336.5,-354.64 1336.5,-360.64 1336.5,-360.64 1336.5,-372.64 1336.5,-372.64 1336.5,-378.64 1330.5,-384.64 1324.5,-384.64"/>
<text text-anchor="middle" x="1295.88" y="-369.89" font-family="Helvetica,sans-Serif" font-size="10.00">test</text>
<text text-anchor="middle" x="1295.88" y="-357.14" font-family="Helvetica,sans-Serif" font-size="10.00">medium / full</text>
</g>
<!-- implement&#45;&gt;test -->
<g id="edge18" class="edge">
<title>implement&#45;&gt;test</title>
<path fill="none" stroke="black" stroke-dasharray="5,2" d="M1179.23,-386.69C1198.95,-383.27 1222.92,-379.11 1243.91,-375.47"/>
<polygon fill="black" stroke="black" points="1253.7,-373.78 1244.62,-379.92 1249.97,-374.42 1243.85,-375.49 1243.85,-375.49 1243.85,-375.49 1249.97,-374.42 1243.08,-371.05 1253.7,-373.78"/>
<text text-anchor="middle" x="1213.25" y="-386.05" font-family="Helvetica,sans-Serif" font-size="9.00">creates</text>
</g>
<!-- triage&#45;&gt;decompose -->
<g id="edge10" class="edge">
<title>triage&#45;&gt;decompose</title>
<path fill="none" stroke="#856404" stroke-width="2" d="M826.49,-383.4C854.71,-377.9 890.73,-370.89 920.71,-365.06"/>
<polygon fill="#856404" stroke="#856404" stroke-width="2" points="919.76,-368.81 928.91,-363.46 918.43,-361.94 919.76,-368.81"/>
<text text-anchor="middle" x="883.12" y="-380.48" font-family="Helvetica,sans-Serif" font-size="9.00">decompose ⟳</text>
</g>
<!-- triage&#45;&gt;implement -->
<g id="edge9" class="edge">
<title>triage&#45;&gt;implement</title>
<path fill="none" stroke="#856404" stroke-width="2" d="M826.35,-392.87C879.82,-393.12 969.41,-393.5 1046.5,-393.64 1059.27,-393.66 1073.05,-393.67 1085.92,-393.67"/>
<polygon fill="#856404" stroke="#856404" stroke-width="2" points="1084.4,-397.17 1094.4,-393.67 1084.4,-390.17 1084.4,-397.17"/>
<text text-anchor="middle" x="980.38" y="-396.3" font-family="Helvetica,sans-Serif" font-size="9.00">implement ⟳</text>
</g>
<!-- triage&#45;&gt;steward_quality -->
<g id="edge22" class="edge">
<title>triage&#45;&gt;steward_quality</title>
<path fill="none" stroke="#856404" stroke-dasharray="1,5" d="M729.42,-377.1C726.63,-374.93 724.11,-372.45 722,-369.64 679.32,-312.75 753.81,-261.4 704,-210.64 664.85,-170.74 258.96,-160.12 205.25,-144.64 188.44,-139.8 170.88,-132.62 155.14,-125.32"/>
<polygon fill="#856404" stroke="#856404" points="155.13,-125.32 147.99,-126.34 144.3,-120.14 151.44,-119.12 155.13,-125.32"/>
</g>
<!-- triage&#45;&gt;steward_security -->
<g id="edge23" class="edge">
<title>triage&#45;&gt;steward_security</title>
<path fill="none" stroke="#856404" stroke-dasharray="1,5" d="M729.38,-377.13C726.61,-374.95 724.1,-372.47 722,-369.64 674.9,-306.12 752.34,-255.21 704,-192.64 668.99,-147.32 260.05,-79.26 205.25,-62.64 192.07,-58.64 178.09,-53.93 164.84,-49.23"/>
<polygon fill="#856404" stroke="#856404" points="165.05,-49.31 158.05,-51.04 153.76,-45.24 160.76,-43.51 165.05,-49.31"/>
</g>
<!-- leg1 -->
<g id="node13" class="node">
<title>leg1</title>
<text text-anchor="start" x="51.38" y="-576.96" font-family="Helvetica,sans-Serif" font-size="9.00">Green = user&#45;visible</text>
<text text-anchor="start" x="51.38" y="-565.71" font-family="Helvetica,sans-Serif" font-size="9.00">Gray = agent&#45;initiated</text>
<text text-anchor="start" x="51.38" y="-554.46" font-family="Helvetica,sans-Serif" font-size="9.00">Yellow = steward</text>
</g>
<!-- leg2 -->
<g id="node14" class="node">
<title>leg2</title>
<text text-anchor="start" x="24" y="-659.21" font-family="Helvetica,sans-Serif" font-size="9.00">Solid arrow = continuation</text>
<text text-anchor="start" x="24" y="-647.96" font-family="Helvetica,sans-Serif" font-size="9.00">Dashed arrow = creates sub&#45;task</text>
<text text-anchor="start" x="24" y="-636.71" font-family="Helvetica,sans-Serif" font-size="9.00">Bold arrow = requires approval</text>
<text text-anchor="start" x="24" y="-625.46" font-family="Helvetica,sans-Serif" font-size="9.00">Dotted diamond = steward review</text>
<text text-anchor="start" x="24" y="-614.21" font-family="Helvetica,sans-Serif" font-size="9.00">⟳ = keep context (session fork)</text>
</g>
</g>
</svg>
