<?xml version="1.0" encoding="UTF-8" standalone="no"?>
<!DOCTYPE svg PUBLIC "-//W3C//DTD SVG 1.1//EN"
 "http://www.w3.org/Graphics/SVG/1.1/DTD/svg11.dtd">
<!-- Generated by graphviz version 12.2.1 (0)
 -->
<!-- Title: task_types Pages: 1 -->
<svg width="1188pt" height="954pt"
 viewBox="0.00 0.00 1187.50 953.94" xmlns="http://www.w3.org/2000/svg" xmlns:xlink="http://www.w3.org/1999/xlink">
<g id="graph0" class="graph" transform="scale(1 1) rotate(0) translate(4 949.94)">
<title>task_types</title>
<polygon fill="white" stroke="none" points="-4,4 -4,-949.94 1183.5,-949.94 1183.5,4 -4,4"/>
<g id="clust1" class="cluster">
<title>cluster_legend</title>
<polygon fill="none" stroke="black" stroke-dasharray="5,2" points="8,-362.18 8,-535.18 195.25,-535.18 195.25,-362.18 8,-362.18"/>
<text text-anchor="middle" x="101.62" y="-521.68" font-family="Helvetica,sans-Serif" font-size="10.00">Legend</text>
</g>
<!-- user -->
<g id="node1" class="node">
<title>user</title>
<polygon fill="#cce5ff" stroke="black" points="129.61,-339.74 101.62,-352.18 73.64,-339.74 73.67,-319.62 129.58,-319.62 129.61,-339.74"/>
<text text-anchor="middle" x="101.62" y="-331.05" font-family="Helvetica,sans-Serif" font-size="10.00">user</text>
</g>
<!-- blank -->
<g id="node2" class="node">
<title>blank</title>
<path fill="#d4edda" stroke="black" d="M298.25,-406.18C298.25,-406.18 268.25,-406.18 268.25,-406.18 262.25,-406.18 256.25,-400.18 256.25,-394.18 256.25,-394.18 256.25,-382.18 256.25,-382.18 256.25,-376.18 262.25,-370.18 268.25,-370.18 268.25,-370.18 298.25,-370.18 298.25,-370.18 304.25,-370.18 310.25,-376.18 310.25,-382.18 310.25,-382.18 310.25,-394.18 310.25,-394.18 310.25,-400.18 304.25,-406.18 298.25,-406.18"/>
<text text-anchor="middle" x="283.25" y="-391.43" font-family="Helvetica,sans-Serif" font-size="10.00">blank</text>
<text text-anchor="middle" x="283.25" y="-378.68" font-family="Helvetica,sans-Serif" font-size="10.00">large</text>
</g>
<!-- user&#45;&gt;blank -->
<g id="edge1" class="edge">
<title>user&#45;&gt;blank</title>
<path fill="none" stroke="black" stroke-dasharray="5,2" d="M129.13,-340.46C147.73,-345.01 173.14,-351.52 195.25,-358.18 211.9,-363.2 230.13,-369.38 245.58,-374.82"/>
<polygon fill="black" stroke="black" points="254.62,-378.04 243.69,-378.92 251.06,-376.77 245.2,-374.68 245.2,-374.68 245.2,-374.68 251.06,-376.77 246.71,-370.44 254.62,-378.04"/>
<text text-anchor="middle" x="221.75" y="-374.17" font-family="Helvetica,sans-Serif" font-size="9.00">creates</text>
</g>
<!-- conversation -->
<g id="node3" class="node">
<title>conversation</title>
<path fill="#d4edda" stroke="black" d="M584.5,-595.18C584.5,-595.18 529.5,-595.18 529.5,-595.18 523.5,-595.18 517.5,-589.18 517.5,-583.18 517.5,-583.18 517.5,-571.18 517.5,-571.18 517.5,-565.18 523.5,-559.18 529.5,-559.18 529.5,-559.18 584.5,-559.18 584.5,-559.18 590.5,-559.18 596.5,-565.18 596.5,-571.18 596.5,-571.18 596.5,-583.18 596.5,-583.18 596.5,-589.18 590.5,-595.18 584.5,-595.18"/>
<text text-anchor="middle" x="557" y="-580.43" font-family="Helvetica,sans-Serif" font-size="10.00">conversation</text>
<text text-anchor="middle" x="557" y="-567.68" font-family="Helvetica,sans-Serif" font-size="10.00">large</text>
</g>
<!-- user&#45;&gt;conversation -->
<g id="edge2" class="edge">
<title>user&#45;&gt;conversation</title>
<path fill="none" stroke="black" stroke-dasharray="5,2" d="M129.79,-334.58C150.2,-336.3 177.56,-341.83 195.25,-358.18 205.26,-367.43 197.9,-375.69 205.25,-387.18 263,-477.48 286.56,-500.36 379.25,-554.18 426.54,-581.64 444.84,-581.63 499.5,-580.18 501.64,-580.12 503.82,-580.05 506.02,-579.98"/>
<polygon fill="black" stroke="black" points="515.89,-579.57 506.08,-584.48 512.11,-579.72 505.9,-579.98 505.9,-579.98 505.9,-579.98 512.11,-579.72 505.71,-575.49 515.89,-579.57"/>
<text text-anchor="middle" x="344.75" y="-546.11" font-family="Helvetica,sans-Serif" font-size="9.00">creates</text>
</g>
<!-- plan -->
<g id="node4" class="node">
<title>plan</title>
<path fill="#d4edda" stroke="black" d="M1021.62,-548.18C1021.62,-548.18 991.62,-548.18 991.62,-548.18 985.62,-548.18 979.62,-542.18 979.62,-536.18 979.62,-536.18 979.62,-524.18 979.62,-524.18 979.62,-518.18 985.62,-512.18 991.62,-512.18 991.62,-512.18 1021.62,-512.18 1021.62,-512.18 1027.62,-512.18 1033.62,-518.18 1033.62,-524.18 1033.62,-524.18 1033.62,-536.18 1033.62,-536.18 1033.62,-542.18 1027.62,-548.18 1021.62,-548.18"/>
<text text-anchor="middle" x="1006.62" y="-533.43" font-family="Helvetica,sans-Serif" font-size="10.00">plan</text>
<text text-anchor="middle" x="1006.62" y="-520.68" font-family="Helvetica,sans-Serif" font-size="10.00">large ro</text>
</g>
<!-- user&#45;&gt;plan -->
<g id="edge3" class="edge">
<title>user&#45;&gt;plan</title>
<path fill="none" stroke="black" stroke-dasharray="5,2" d="M129.71,-333.82C253.4,-332.58 764.54,-332.05 903,-405.18 943.87,-426.76 974.61,-472.27 991.35,-502.01"/>
<polygon fill="black" stroke="black" points="996.1,-510.73 987.36,-504.1 994.29,-507.41 991.32,-501.95 991.32,-501.95 991.32,-501.95 994.29,-507.41 995.27,-499.8 996.1,-510.73"/>
<text text-anchor="middle" x="557" y="-349.67" font-family="Helvetica,sans-Serif" font-size="9.00">creates</text>
</g>
<!-- research -->
<g id="node5" class="node">
<title>research</title>
<path fill="#d4edda" stroke="black" d="M1167.5,-426.18C1167.5,-426.18 1122.25,-426.18 1122.25,-426.18 1116.25,-426.18 1110.25,-420.18 1110.25,-414.18 1110.25,-414.18 1110.25,-402.18 1110.25,-402.18 1110.25,-396.18 1116.25,-390.18 1122.25,-390.18 1122.25,-390.18 1167.5,-390.18 1167.5,-390.18 1173.5,-390.18 1179.5,-396.18 1179.5,-402.18 1179.5,-402.18 1179.5,-414.18 1179.5,-414.18 1179.5,-420.18 1173.5,-426.18 1167.5,-426.18"/>
<text text-anchor="middle" x="1144.88" y="-411.43" font-family="Helvetica,sans-Serif" font-size="10.00">research</text>
<text text-anchor="middle" x="1144.88" y="-398.68" font-family="Helvetica,sans-Serif" font-size="10.00">medium ro</text>
</g>
<!-- user&#45;&gt;research -->
<g id="edge4" class="edge">
<title>user&#45;&gt;research</title>
<path fill="none" stroke="black" stroke-dasharray="5,2" d="M123.46,-319.12C144.01,-303.38 175.18,-276.98 195.25,-248.18 201.86,-238.7 199.85,-234.39 205.25,-224.18 234.53,-168.82 219.63,-106.18 282.25,-106.18 282.25,-106.18 282.25,-106.18 1007.62,-106.18 1126.38,-106.18 1142.21,-302.6 1143.88,-378.62"/>
<polygon fill="black" stroke="black" points="1144.03,-388.52 1139.38,-378.59 1143.97,-384.74 1143.88,-378.53 1143.88,-378.53 1143.88,-378.53 1143.97,-384.74 1148.38,-378.46 1144.03,-388.52"/>
<text text-anchor="middle" x="631" y="-108.88" font-family="Helvetica,sans-Serif" font-size="9.00">creates</text>
</g>
<!-- bug -->
<g id="node6" class="node">
<title>bug</title>
<path fill="#d4edda" stroke="black" d="M1021.62,-399.18C1021.62,-399.18 991.62,-399.18 991.62,-399.18 985.62,-399.18 979.62,-393.18 979.62,-387.18 979.62,-387.18 979.62,-375.18 979.62,-375.18 979.62,-369.18 985.62,-363.18 991.62,-363.18 991.62,-363.18 1021.62,-363.18 1021.62,-363.18 1027.62,-363.18 1033.62,-369.18 1033.62,-375.18 1033.62,-375.18 1033.62,-387.18 1033.62,-387.18 1033.62,-393.18 1027.62,-399.18 1021.62,-399.18"/>
<text text-anchor="middle" x="1006.62" y="-384.43" font-family="Helvetica,sans-Serif" font-size="10.00">bug</text>
<text text-anchor="middle" x="1006.62" y="-371.68" font-family="Helvetica,sans-Serif" font-size="10.00">large</text>
</g>
<!-- user&#45;&gt;bug -->
<g id="edge5" class="edge">
<title>user&#45;&gt;bug</title>
<path fill="none" stroke="black" stroke-dasharray="5,2" d="M114.85,-319.28C141.66,-288.38 209.12,-220.18 282.25,-220.18 282.25,-220.18 282.25,-220.18 867.88,-220.18 936.67,-220.18 978.46,-306.09 995.99,-352.4"/>
<polygon fill="black" stroke="black" points="999.33,-361.57 991.68,-353.71 998.03,-358.01 995.91,-352.17 995.91,-352.17 995.91,-352.17 998.03,-358.01 1000.14,-350.63 999.33,-361.57"/>
<text text-anchor="middle" x="557" y="-222.88" font-family="Helvetica,sans-Serif" font-size="9.00">creates</text>
</g>
<!-- plan_mode -->
<g id="node7" class="node">
<title>plan_mode</title>
<path fill="#e2e3e5" stroke="black" d="M437.25,-545.18C437.25,-545.18 391.25,-545.18 391.25,-545.18 385.25,-545.18 379.25,-539.18 379.25,-533.18 379.25,-533.18 379.25,-521.18 379.25,-521.18 379.25,-515.18 385.25,-509.18 391.25,-509.18 391.25,-509.18 437.25,-509.18 437.25,-509.18 443.25,-509.18 449.25,-515.18 449.25,-521.18 449.25,-521.18 449.25,-533.18 449.25,-533.18 449.25,-539.18 443.25,-545.18 437.25,-545.18"/>
<text text-anchor="middle" x="414.25" y="-530.43" font-family="Helvetica,sans-Serif" font-size="10.00">plan_mode</text>
<text text-anchor="middle" x="414.25" y="-517.68" font-family="Helvetica,sans-Serif" font-size="10.00">large ro</text>
</g>
<!-- blank&#45;&gt;plan_mode -->
<g id="edge7" class="edge">
<title>blank&#45;&gt;plan_mode</title>
<path fill="none" stroke="black" d="M301.38,-406.64C323.77,-430.76 363.12,-473.17 388.68,-500.71"/>
<polygon fill="black" stroke="black" points="386.06,-503.03 395.43,-507.98 391.19,-498.27 386.06,-503.03"/>
<text text-anchor="middle" x="344.75" y="-472.83" font-family="Helvetica,sans-Serif" font-size="9.00">plan ⟳</text>
</g>
<!-- bug_mode -->
<g id="node8" class="node">
<title>bug_mode</title>
<path fill="#e2e3e5" stroke="black" d="M720.5,-504.18C720.5,-504.18 677.5,-504.18 677.5,-504.18 671.5,-504.18 665.5,-498.18 665.5,-492.18 665.5,-492.18 665.5,-480.18 665.5,-480.18 665.5,-474.18 671.5,-468.18 677.5,-468.18 677.5,-468.18 720.5,-468.18 720.5,-468.18 726.5,-468.18 732.5,-474.18 732.5,-480.18 732.5,-480.18 732.5,-492.18 732.5,-492.18 732.5,-498.18 726.5,-504.18 720.5,-504.18"/>
<text text-anchor="middle" x="699" y="-489.43" font-family="Helvetica,sans-Serif" font-size="10.00">bug_mode</text>
<text text-anchor="middle" x="699" y="-476.68" font-family="Helvetica,sans-Serif" font-size="10.00">large</text>
</g>
<!-- blank&#45;&gt;bug_mode -->
<g id="edge6" class="edge">
<title>blank&#45;&gt;bug_mode</title>
<path fill="none" stroke="black" d="M310.38,-393.55C370.28,-405.99 522.05,-438.25 647.5,-471.18 649.75,-471.77 652.04,-472.39 654.36,-473.03"/>
<polygon fill="black" stroke="black" points="653.18,-476.33 663.76,-475.7 655.1,-469.6 653.18,-476.33"/>
<text text-anchor="middle" x="483.38" y="-437.41" font-family="Helvetica,sans-Serif" font-size="9.00">bug ⟳</text>
</g>
<!-- conversation&#45;&gt;plan -->
<g id="edge19" class="edge">
<title>conversation&#45;&gt;plan</title>
<path fill="none" stroke="black" stroke-dasharray="5,2" d="M596.75,-569.78C662.92,-557.55 802.09,-533.65 921,-525.18 936.56,-524.07 953.74,-524.74 968.53,-525.9"/>
<polygon fill="black" stroke="black" points="978.1,-526.75 967.74,-530.35 974.33,-526.42 968.14,-525.86 968.14,-525.86 968.14,-525.86 974.33,-526.42 968.54,-521.38 978.1,-526.75"/>
<text text-anchor="middle" x="781.62" y="-546.87" font-family="Helvetica,sans-Serif" font-size="9.00">creates</text>
</g>
<!-- conversation&#45;&gt;research -->
<g id="edge20" class="edge">
<title>conversation&#45;&gt;research</title>
<path fill="none" stroke="black" stroke-dasharray="5,2" d="M568.79,-558.79C576.61,-545.38 587.36,-526.74 596.5,-510.18 604.76,-495.21 602.68,-488.53 614.5,-476.18 644.25,-445.09 654.97,-427.18 698,-427.18 698,-427.18 698,-427.18 938.5,-427.18 993.81,-427.18 1057.15,-420.26 1098.69,-414.77"/>
<polygon fill="black" stroke="black" points="1108.6,-413.43 1099.29,-419.23 1104.85,-413.94 1098.69,-414.77 1098.69,-414.77 1098.69,-414.77 1104.85,-413.94 1098.09,-410.32 1108.6,-413.43"/>
<text text-anchor="middle" x="866.88" y="-429.88" font-family="Helvetica,sans-Serif" font-size="9.00">creates</text>
</g>
<!-- conversation&#45;&gt;plan_mode -->
<g id="edge9" class="edge">
<title>conversation&#45;&gt;plan_mode</title>
<path fill="none" stroke="black" d="M529.06,-558.84C519.99,-553.35 509.6,-547.78 499.5,-543.93 487.21,-539.25 473.4,-535.8 460.56,-533.3"/>
<polygon fill="black" stroke="black" points="461.55,-529.92 451.08,-531.6 460.31,-536.81 461.55,-529.92"/>
<text text-anchor="middle" x="483.38" y="-546.63" font-family="Helvetica,sans-Serif" font-size="9.00">plan ⟳</text>
</g>
<!-- conversation&#45;&gt;bug_mode -->
<g id="edge8" class="edge">
<title>conversation&#45;&gt;bug_mode</title>
<path fill="none" stroke="black" d="M573.95,-558.87C584.59,-547.45 599.36,-533.07 614.5,-522.93 626.86,-514.66 641.39,-507.51 654.83,-501.77"/>
<polygon fill="black" stroke="black" points="655.98,-505.08 663.91,-498.06 653.33,-498.6 655.98,-505.08"/>
<text text-anchor="middle" x="631" y="-525.63" font-family="Helvetica,sans-Serif" font-size="9.00">bug ⟳</text>
</g>
<!-- spike -->
<g id="node9" class="node">
<title>spike</title>
<path fill="#e2e3e5" stroke="black" d="M1165.62,-614.18C1165.62,-614.18 1124.12,-614.18 1124.12,-614.18 1118.12,-614.18 1112.12,-608.18 1112.12,-602.18 1112.12,-602.18 1112.12,-590.18 1112.12,-590.18 1112.12,-584.18 1118.12,-578.18 1124.12,-578.18 1124.12,-578.18 1165.62,-578.18 1165.62,-578.18 1171.62,-578.18 1177.62,-584.18 1177.62,-590.18 1177.62,-590.18 1177.62,-602.18 1177.62,-602.18 1177.62,-608.18 1171.62,-614.18 1165.62,-614.18"/>
<text text-anchor="middle" x="1144.88" y="-599.43" font-family="Helvetica,sans-Serif" font-size="10.00">spike</text>
<text text-anchor="middle" x="1144.88" y="-586.68" font-family="Helvetica,sans-Serif" font-size="10.00">medium ⎘</text>
</g>
<!-- conversation&#45;&gt;spike -->
<g id="edge21" class="edge">
<title>conversation&#45;&gt;spike</title>
<path fill="none" stroke="black" stroke-dasharray="5,2" d="M596.98,-579.58C681.26,-584.63 886.81,-596.23 1059.25,-600.18 1073.91,-600.52 1077.59,-600.75 1092.25,-600.18 1095,-600.07 1097.83,-599.94 1100.69,-599.77"/>
<polygon fill="black" stroke="black" points="1110.46,-599.14 1100.77,-604.28 1106.69,-599.38 1100.48,-599.79 1100.48,-599.79 1100.48,-599.79 1106.69,-599.38 1100.19,-595.3 1110.46,-599.14"/>
<text text-anchor="middle" x="866.88" y="-597.71" font-family="Helvetica,sans-Serif" font-size="9.00">creates</text>
</g>
<!-- triage -->
<g id="node11" class="node">
<title>triage</title>
<path fill="#e2e3e5" stroke="black" d="M714,-680.18C714,-680.18 684,-680.18 684,-680.18 678,-680.18 672,-674.18 672,-668.18 672,-668.18 672,-656.18 672,-656.18 672,-650.18 678,-644.18 684,-644.18 684,-644.18 714,-644.18 714,-644.18 720,-644.18 726,-650.18 726,-656.18 726,-656.18 726,-668.18 726,-668.18 726,-674.18 720,-680.18 714,-680.18"/>
<text text-anchor="middle" x="699" y="-665.43" font-family="Helvetica,sans-Serif" font-size="10.00">triage</text>
<text text-anchor="middle" x="699" y="-652.68" font-family="Helvetica,sans-Serif" font-size="10.00">large ro</text>
</g>
<!-- conversation&#45;&gt;triage -->
<g id="edge23" class="edge">
<title>conversation&#45;&gt;triage</title>
<path fill="none" stroke="black" stroke-dasharray="5,2" d="M571.13,-595.65C581.5,-608.97 597.09,-626.43 614.5,-637.18 628.59,-645.88 645.89,-651.71 661.09,-655.53"/>
<polygon fill="black" stroke="black" points="670.51,-657.7 659.76,-659.85 666.83,-656.86 660.77,-655.46 660.77,-655.46 660.77,-655.46 666.83,-656.86 661.78,-651.08 670.51,-657.7"/>
<text text-anchor="middle" x="631" y="-654.26" font-family="Helvetica,sans-Serif" font-size="9.00">creates</text>
</g>
<!-- implement -->
<g id="node13" class="node">
<title>implement</title>
<path fill="#e2e3e5" stroke="black" d="M1029.25,-842.18C1029.25,-842.18 984,-842.18 984,-842.18 978,-842.18 972,-836.18 972,-830.18 972,-830.18 972,-818.18 972,-818.18 972,-812.18 978,-806.18 984,-806.18 984,-806.18 1029.25,-806.18 1029.25,-806.18 1035.25,-806.18 1041.25,-812.18 1041.25,-818.18 1041.25,-818.18 1041.25,-830.18 1041.25,-830.18 1041.25,-836.18 1035.25,-842.18 1029.25,-842.18"/>
<text text-anchor="middle" x="1006.62" y="-827.43" font-family="Helvetica,sans-Serif" font-size="10.00">implement</text>
<text text-anchor="middle" x="1006.62" y="-814.68" font-family="Helvetica,sans-Serif" font-size="10.00">medium ⎘</text>
</g>
<!-- conversation&#45;&gt;implement -->
<g id="edge24" class="edge">
<title>conversation&#45;&gt;implement</title>
<path fill="none" stroke="black" stroke-dasharray="5,2" d="M560.35,-595.42C567.44,-643.49 592.8,-775.24 665.5,-852.18 741.08,-932.17 796.82,-951.09 903,-922.18 928.37,-915.27 934.34,-909.65 954,-892.18 967.19,-880.45 979.29,-864.92 988.44,-851.66"/>
<polygon fill="black" stroke="black" points="993.89,-843.51 992.08,-854.32 991.79,-846.65 988.34,-851.82 988.34,-851.82 988.34,-851.82 991.79,-846.65 984.59,-849.32 993.89,-843.51"/>
<text text-anchor="middle" x="781.62" y="-937.39" font-family="Helvetica,sans-Serif" font-size="9.00">creates</text>
</g>
<!-- verify -->
<g id="node14" class="node">
<title>verify</title>
<path fill="#e2e3e5" stroke="black" d="M715.25,-843.18C715.25,-843.18 682.75,-843.18 682.75,-843.18 676.75,-843.18 670.75,-837.18 670.75,-831.18 670.75,-831.18 670.75,-819.18 670.75,-819.18 670.75,-813.18 676.75,-807.18 682.75,-807.18 682.75,-807.18 715.25,-807.18 715.25,-807.18 721.25,-807.18 727.25,-813.18 727.25,-819.18 727.25,-819.18 727.25,-831.18 727.25,-831.18 727.25,-837.18 721.25,-843.18 715.25,-843.18"/>
<text text-anchor="middle" x="699" y="-828.43" font-family="Helvetica,sans-Serif" font-size="10.00">verify</text>
<text text-anchor="middle" x="699" y="-815.68" font-family="Helvetica,sans-Serif" font-size="10.00">medium</text>
</g>
<!-- conversation&#45;&gt;verify -->
<g id="edge22" class="edge">
<title>conversation&#45;&gt;verify</title>
<path fill="none" stroke="black" stroke-dasharray="5,2" d="M568.29,-595.42C592.52,-638.32 653.24,-745.9 682.18,-797.16"/>
<polygon fill="black" stroke="black" points="687.09,-805.86 678.26,-799.36 685.23,-802.56 682.18,-797.15 682.18,-797.15 682.18,-797.15 685.23,-802.56 686.09,-794.94 687.09,-805.86"/>
<text text-anchor="middle" x="631" y="-733.39" font-family="Helvetica,sans-Serif" font-size="9.00">creates</text>
</g>
<!-- plan&#45;&gt;research -->
<g id="edge29" class="edge">
<title>plan&#45;&gt;research</title>
<path fill="none" stroke="black" stroke-dasharray="5,2" d="M1034.03,-524C1052.03,-518.72 1075.54,-509.65 1092.25,-495.18 1110.54,-479.34 1124.09,-455.36 1132.71,-436.59"/>
<polygon fill="black" stroke="black" points="1136.61,-427.62 1136.75,-438.59 1135.1,-431.09 1132.62,-436.79 1132.62,-436.79 1132.62,-436.79 1135.1,-431.09 1128.5,-434.99 1136.61,-427.62"/>
<text text-anchor="middle" x="1075.75" y="-517.19" font-family="Helvetica,sans-Serif" font-size="9.00">creates</text>
</g>
<!-- plan&#45;&gt;spike -->
<g id="edge30" class="edge">
<title>plan&#45;&gt;spike</title>
<path fill="none" stroke="black" stroke-dasharray="5,2" d="M1033.91,-533.76C1051.21,-536.86 1073.95,-542.4 1092.25,-551.93 1101.63,-556.81 1110.77,-563.7 1118.68,-570.59"/>
<polygon fill="black" stroke="black" points="1125.85,-577.14 1115.43,-573.71 1123.06,-574.59 1118.47,-570.39 1118.47,-570.39 1118.47,-570.39 1123.06,-574.59 1121.51,-567.07 1125.85,-577.14"/>
<text text-anchor="middle" x="1075.75" y="-554.63" font-family="Helvetica,sans-Serif" font-size="9.00">creates</text>
</g>
<!-- bug&#45;&gt;research -->
<g id="edge31" class="edge">
<title>bug&#45;&gt;research</title>
<path fill="none" stroke="black" stroke-dasharray="5,2" d="M1033.9,-386.39C1052.33,-390.04 1077.45,-395.02 1099.03,-399.29"/>
<polygon fill="black" stroke="black" points="1108.74,-401.22 1098.05,-403.69 1105.03,-400.48 1098.93,-399.27 1098.93,-399.27 1098.93,-399.27 1105.03,-400.48 1099.8,-394.86 1108.74,-401.22"/>
<text text-anchor="middle" x="1075.75" y="-400.59" font-family="Helvetica,sans-Serif" font-size="9.00">creates</text>
</g>
<!-- bug&#45;&gt;spike -->
<g id="edge32" class="edge">
<title>bug&#45;&gt;spike</title>
<path fill="none" stroke="black" stroke-dasharray="5,2" d="M1026.26,-399.54C1044.73,-418.45 1072.96,-449.38 1092.25,-479.93 1110.04,-508.1 1124.79,-543.45 1133.91,-567.73"/>
<polygon fill="black" stroke="black" points="1137.27,-576.9 1129.6,-569.06 1135.97,-573.34 1133.83,-567.51 1133.83,-567.51 1133.83,-567.51 1135.97,-573.34 1138.05,-565.96 1137.27,-576.9"/>
<text text-anchor="middle" x="1075.75" y="-482.63" font-family="Helvetica,sans-Serif" font-size="9.00">creates</text>
</g>
<!-- plan_mode&#45;&gt;conversation -->
<g id="edge10" class="edge">
<title>plan_mode&#45;&gt;conversation</title>
<path fill="none" stroke="black" d="M446.55,-545.66C453.24,-549.14 460.36,-552.52 467.25,-555.18 479.62,-559.96 493.37,-563.96 506.27,-567.18"/>
<polygon fill="black" stroke="black" points="505.33,-570.56 515.87,-569.46 506.95,-563.75 505.33,-570.56"/>
<text text-anchor="middle" x="483.38" y="-567.82" font-family="Helvetica,sans-Serif" font-size="9.00">back ⟳</text>
</g>
<!-- plan_mode&#45;&gt;research -->
<g id="edge25" class="edge">
<title>plan_mode&#45;&gt;research</title>
<path fill="none" stroke="black" stroke-dasharray="5,2" d="M446.01,-508.68C452.92,-504.74 460.27,-500.71 467.25,-497.18 489.01,-486.18 494.9,-484.31 517.5,-475.18 711.31,-396.86 763.21,-364.39 972,-354.18 1002.74,-352.68 1011.37,-346.8 1041.25,-354.18 1065.05,-360.06 1089.43,-372.56 1108.45,-384.06"/>
<polygon fill="black" stroke="black" points="1116.84,-389.3 1105.98,-387.82 1113.64,-387.29 1108.36,-384 1108.36,-384 1108.36,-384 1113.64,-387.29 1110.74,-380.18 1116.84,-389.3"/>
<text text-anchor="middle" x="781.62" y="-388.12" font-family="Helvetica,sans-Serif" font-size="9.00">creates</text>
</g>
<!-- plan_mode&#45;&gt;spike -->
<g id="edge26" class="edge">
<title>plan_mode&#45;&gt;spike</title>
<path fill="none" stroke="black" stroke-dasharray="5,2" d="M417.61,-545.45C425.73,-599.56 457.61,-755.18 556,-755.18 556,-755.18 556,-755.18 782.62,-755.18 928.22,-755.18 975.49,-735.16 1092.25,-648.18 1102.3,-640.69 1112.26,-631.27 1120.71,-622.5"/>
<polygon fill="black" stroke="black" points="1127.47,-615.28 1123.93,-625.66 1124.89,-618.04 1120.64,-622.58 1120.64,-622.58 1120.64,-622.58 1124.89,-618.04 1117.35,-619.51 1127.47,-615.28"/>
<text text-anchor="middle" x="781.62" y="-757.88" font-family="Helvetica,sans-Serif" font-size="9.00">creates</text>
</g>
<!-- bug_mode&#45;&gt;conversation -->
<g id="edge12" class="edge">
<title>bug_mode&#45;&gt;conversation</title>
<path fill="none" stroke="black" d="M665.15,-480.28C648.73,-479.07 629.27,-480.43 614.5,-489.93 599.71,-499.45 605.77,-510.23 596.5,-525.18 591.37,-533.46 585.29,-542.1 579.51,-549.9"/>
<polygon fill="black" stroke="black" points="576.83,-547.64 573.58,-557.72 582.41,-551.86 576.83,-547.64"/>
<text text-anchor="middle" x="631" y="-492.63" font-family="Helvetica,sans-Serif" font-size="9.00">back ⟳</text>
</g>
<!-- bug_mode&#45;&gt;research -->
<g id="edge27" class="edge">
<title>bug_mode&#45;&gt;research</title>
<path fill="none" stroke="black" stroke-dasharray="5,2" d="M732.74,-488.19C815.24,-492.74 1029.53,-501.14 1092.25,-470.18 1107.26,-462.77 1119.51,-448.76 1128.3,-435.93"/>
<polygon fill="black" stroke="black" points="1133.69,-427.51 1132.09,-438.36 1131.65,-430.7 1128.3,-435.94 1128.3,-435.94 1128.3,-435.94 1131.65,-430.7 1124.51,-433.51 1133.69,-427.51"/>
<text text-anchor="middle" x="937.5" y="-495.12" font-family="Helvetica,sans-Serif" font-size="9.00">creates</text>
</g>
<!-- bug_mode&#45;&gt;plan_mode -->
<g id="edge11" class="edge">
<title>bug_mode&#45;&gt;plan_mode</title>
<path fill="none" stroke="black" d="M665.07,-478.51C649.7,-475.89 631.16,-474.08 614.5,-476.18 560.7,-482.96 500.61,-499.64 460.63,-512.09"/>
<polygon fill="black" stroke="black" points="459.58,-508.75 451.1,-515.11 461.69,-515.43 459.58,-508.75"/>
<text text-anchor="middle" x="557" y="-497.94" font-family="Helvetica,sans-Serif" font-size="9.00">needs_plan ⟳</text>
</g>
<!-- bug_mode&#45;&gt;spike -->
<g id="edge28" class="edge">
<title>bug_mode&#45;&gt;spike</title>
<path fill="none" stroke="black" stroke-dasharray="5,2" d="M732.97,-497.85C775.85,-512.7 853.3,-538.45 921,-555.18 982.97,-570.49 1055.91,-582.87 1101.03,-589.87"/>
<polygon fill="black" stroke="black" points="1110.67,-591.35 1100.11,-594.28 1106.93,-590.78 1100.79,-589.84 1100.79,-589.84 1100.79,-589.84 1106.93,-590.78 1101.47,-585.39 1110.67,-591.35"/>
<text text-anchor="middle" x="937.5" y="-565.42" font-family="Helvetica,sans-Serif" font-size="9.00">creates</text>
</g>
<!-- test -->
<g id="node10" class="node">
<title>test</title>
<path fill="#e2e3e5" stroke="black" d="M1161.12,-842.18C1161.12,-842.18 1128.62,-842.18 1128.62,-842.18 1122.62,-842.18 1116.62,-836.18 1116.62,-830.18 1116.62,-830.18 1116.62,-818.18 1116.62,-818.18 1116.62,-812.18 1122.62,-806.18 1128.62,-806.18 1128.62,-806.18 1161.12,-806.18 1161.12,-806.18 1167.12,-806.18 1173.12,-812.18 1173.12,-818.18 1173.12,-818.18 1173.12,-830.18 1173.12,-830.18 1173.12,-836.18 1167.12,-842.18 1161.12,-842.18"/>
<text text-anchor="middle" x="1144.88" y="-827.43" font-family="Helvetica,sans-Serif" font-size="10.00">test</text>
<text text-anchor="middle" x="1144.88" y="-814.68" font-family="Helvetica,sans-Serif" font-size="10.00">medium</text>
</g>
<!-- decompose -->
<g id="node12" class="node">
<title>decompose</title>
<path fill="#e2e3e5" stroke="black" d="M891,-680.18C891,-680.18 842.75,-680.18 842.75,-680.18 836.75,-680.18 830.75,-674.18 830.75,-668.18 830.75,-668.18 830.75,-656.18 830.75,-656.18 830.75,-650.18 836.75,-644.18 842.75,-644.18 842.75,-644.18 891,-644.18 891,-644.18 897,-644.18 903,-650.18 903,-656.18 903,-656.18 903,-668.18 903,-668.18 903,-674.18 897,-680.18 891,-680.18"/>
<text text-anchor="middle" x="866.88" y="-665.43" font-family="Helvetica,sans-Serif" font-size="10.00">decompose</text>
<text text-anchor="middle" x="866.88" y="-652.68" font-family="Helvetica,sans-Serif" font-size="10.00">large ro</text>
</g>
<!-- triage&#45;&gt;decompose -->
<g id="edge14" class="edge">
<title>triage&#45;&gt;decompose</title>
<path fill="none" stroke="#856404" stroke-width="2" d="M726.28,-662.18C751.12,-662.18 788.95,-662.18 818.96,-662.18"/>
<polygon fill="#856404" stroke="#856404" stroke-width="2" points="817.43,-665.68 827.43,-662.18 817.43,-658.68 817.43,-665.68"/>
<text text-anchor="middle" x="781.62" y="-664.88" font-family="Helvetica,sans-Serif" font-size="9.00">decompose ⟳</text>
</g>
<!-- triage&#45;&gt;implement -->
<g id="edge13" class="edge">
<title>triage&#45;&gt;implement</title>
<path fill="none" stroke="#856404" stroke-width="2" d="M726.32,-676.13C778.96,-704.03 897.67,-766.96 962.08,-801.1"/>
<polygon fill="#856404" stroke="#856404" stroke-width="2" points="958.78,-803.31 969.25,-804.9 962.06,-797.13 958.78,-803.31"/>
<text text-anchor="middle" x="866.88" y="-772.44" font-family="Helvetica,sans-Serif" font-size="9.00">implement</text>
</g>
<!-- steward_quality -->
<g id="node16" class="node">
<title>steward_quality</title>
<path fill="#fff3cd" stroke="black" d="M173.57,-209.64C173.57,-209.64 173.57,-216.72 173.57,-216.72 173.57,-220.26 170.23,-224.99 166.9,-226.18 166.9,-226.18 138.09,-236.44 138.09,-236.44 134.76,-237.63 127.89,-238.82 124.35,-238.82 124.35,-238.82 78.9,-238.82 78.9,-238.82 75.36,-238.82 68.49,-237.63 65.16,-236.44 65.16,-236.44 36.35,-226.18 36.35,-226.18 33.02,-224.99 29.68,-220.26 29.68,-216.72 29.68,-216.72 29.68,-209.64 29.68,-209.64 29.68,-206.1 33.02,-201.37 36.35,-200.18 36.35,-200.18 65.16,-189.92 65.16,-189.92 68.49,-188.73 75.36,-187.54 78.9,-187.54 78.9,-187.54 124.35,-187.54 124.35,-187.54 127.89,-187.54 134.76,-188.73 138.09,-189.92 138.09,-189.92 166.9,-200.18 166.9,-200.18 170.23,-201.37 173.57,-206.1 173.57,-209.64"/>
<text text-anchor="middle" x="101.62" y="-216.43" font-family="Helvetica,sans-Serif" font-size="10.00">steward_quality</text>
<text text-anchor="middle" x="101.62" y="-203.68" font-family="Helvetica,sans-Serif" font-size="10.00">large ro</text>
</g>
<!-- triage&#45;&gt;steward_quality -->
<g id="edge37" class="edge">
<title>triage&#45;&gt;steward_quality</title>
<path fill="none" stroke="#856404" stroke-dasharray="1,5" d="M671.81,-644.9C652.77,-630.87 628.04,-609.33 614.5,-584.18 591.85,-542.1 630.66,-511.59 596.5,-478.18 554.99,-437.58 519.9,-483.66 467.25,-459.18 382.75,-419.88 387.15,-372.82 310.25,-320.18 262.53,-287.52 203.56,-258.04 160.67,-238.34"/>
<polygon fill="#856404" stroke="#856404" points="160.77,-238.39 153.65,-239.54 149.84,-233.42 156.96,-232.26 160.77,-238.39"/>
</g>
<!-- steward_security -->
<g id="node17" class="node">
<title>steward_security</title>
<path fill="#fff3cd" stroke="black" d="M177.59,-124.64C177.59,-124.64 177.59,-131.72 177.59,-131.72 177.59,-135.26 174.23,-139.93 170.88,-141.06 170.88,-141.06 139.8,-151.56 139.8,-151.56 136.44,-152.69 129.55,-153.82 126.01,-153.82 126.01,-153.82 77.24,-153.82 77.24,-153.82 73.7,-153.82 66.81,-152.69 63.45,-151.56 63.45,-151.56 32.37,-141.06 32.37,-141.06 29.02,-139.93 25.66,-135.26 25.66,-131.72 25.66,-131.72 25.66,-124.64 25.66,-124.64 25.66,-121.1 29.02,-116.43 32.37,-115.3 32.37,-115.3 63.45,-104.8 63.45,-104.8 66.81,-103.67 73.7,-102.54 77.24,-102.54 77.24,-102.54 126.01,-102.54 126.01,-102.54 129.55,-102.54 136.44,-103.67 139.8,-104.8 139.8,-104.8 170.88,-115.3 170.88,-115.3 174.23,-116.43 177.59,-121.1 177.59,-124.64"/>
<text text-anchor="middle" x="101.62" y="-131.43" font-family="Helvetica,sans-Serif" font-size="10.00">steward_security</text>
<text text-anchor="middle" x="101.62" y="-118.68" font-family="Helvetica,sans-Serif" font-size="10.00">large ro</text>
</g>
<!-- triage&#45;&gt;steward_security -->
<g id="edge38" class="edge">
<title>triage&#45;&gt;steward_security</title>
<path fill="none" stroke="#856404" stroke-dasharray="1,5" d="M685.55,-643.69C675.33,-628.51 660.48,-606.45 647.5,-587.18 632.83,-565.4 624.83,-562.32 614.5,-538.18 599.82,-503.88 623.21,-482.23 596.5,-456.18 554.61,-415.33 511.94,-468.94 467.25,-431.18 449.85,-416.47 462.59,-401.65 449.25,-383.18 364.34,-265.56 316.03,-258.53 195.25,-178.18 183.48,-170.35 170.38,-162.69 157.81,-155.81"/>
<polygon fill="#856404" stroke="#856404" points="157.84,-155.83 150.66,-156.52 147.27,-150.16 154.45,-149.47 157.84,-155.83"/>
</g>
<!-- decompose&#45;&gt;plan -->
<g id="edge34" class="edge">
<title>decompose&#45;&gt;plan</title>
<path fill="none" stroke="black" stroke-dasharray="5,2" d="M892.02,-643.99C896.21,-639.86 900.14,-635.19 903,-630.18 922.42,-596.17 892.7,-570.99 921,-543.93 933.41,-532.06 951.82,-528.1 968.31,-527.32"/>
<polygon fill="black" stroke="black" points="978.1,-527.25 968.13,-531.83 974.31,-527.28 968.1,-527.33 968.1,-527.33 968.1,-527.33 974.31,-527.28 968.06,-522.83 978.1,-527.25"/>
<text text-anchor="middle" x="937.5" y="-546.63" font-family="Helvetica,sans-Serif" font-size="9.00">creates</text>
</g>
<!-- decompose&#45;&gt;spike -->
<g id="edge35" class="edge">
<title>decompose&#45;&gt;spike</title>
<path fill="none" stroke="black" stroke-dasharray="5,2" d="M903.22,-661.54C948.4,-659.7 1028.44,-653.01 1092.25,-629.18 1098.38,-626.89 1104.54,-623.8 1110.37,-620.42"/>
<polygon fill="black" stroke="black" points="1118.76,-615.2 1112.65,-624.3 1115.55,-617.19 1110.27,-620.48 1110.27,-620.48 1110.27,-620.48 1115.55,-617.19 1107.89,-616.66 1118.76,-615.2"/>
<text text-anchor="middle" x="1006.62" y="-658.73" font-family="Helvetica,sans-Serif" font-size="9.00">creates</text>
</g>
<!-- decompose&#45;&gt;implement -->
<g id="edge33" class="edge">
<title>decompose&#45;&gt;implement</title>
<path fill="none" stroke="black" stroke-dasharray="5,2" d="M893.63,-680.56C911.89,-694.42 936.2,-714.63 954,-735.93 969.32,-754.26 982.8,-777.71 992.14,-795.83"/>
<polygon fill="black" stroke="black" points="996.6,-804.71 988.09,-797.79 994.9,-801.33 992.11,-795.77 992.11,-795.77 992.11,-795.77 994.9,-801.33 996.13,-793.76 996.6,-804.71"/>
<text text-anchor="middle" x="937.5" y="-738.63" font-family="Helvetica,sans-Serif" font-size="9.00">creates</text>
</g>
<!-- implement&#45;&gt;test -->
<g id="edge36" class="edge">
<title>implement&#45;&gt;test</title>
<path fill="none" stroke="black" stroke-dasharray="5,2" d="M1041.66,-824.18C1060.89,-824.18 1085.02,-824.18 1105.01,-824.18"/>
<polygon fill="black" stroke="black" points="1115,-824.18 1105,-828.68 1111.22,-824.18 1105,-824.18 1105,-824.18 1105,-824.18 1111.22,-824.18 1105,-819.68 1115,-824.18"/>
<text text-anchor="middle" x="1075.75" y="-826.88" font-family="Helvetica,sans-Serif" font-size="9.00">creates</text>
</g>
<!-- implement&#45;&gt;verify -->
<g id="edge15" class="edge">
<title>implement&#45;&gt;verify</title>
<path fill="none" stroke="black" d="M971.93,-820.37C951.93,-818.31 926.05,-815.97 903,-814.93 845.89,-812.36 779.76,-817.15 738.9,-821.01"/>
<polygon fill="black" stroke="black" points="738.69,-817.51 729.08,-821.97 739.38,-824.48 738.69,-817.51"/>
<text text-anchor="middle" x="866.88" y="-817.63" font-family="Helvetica,sans-Serif" font-size="9.00">done</text>
</g>
<!-- verify&#45;&gt;implement -->
<g id="edge16" class="edge">
<title>verify&#45;&gt;implement</title>
<path fill="none" stroke="black" d="M727.71,-829.72C735.1,-830.74 743.08,-831.67 750.5,-832.18 780.98,-834.28 908.37,-834.42 954,-831.18 956.04,-831.03 958.13,-830.86 960.23,-830.66"/>
<polygon fill="black" stroke="black" points="960.47,-834.16 970.03,-829.59 959.71,-827.2 960.47,-834.16"/>
<text text-anchor="middle" x="866.88" y="-836.4" font-family="Helvetica,sans-Serif" font-size="9.00">fail</text>
</g>
<!-- review -->
<g id="node15" class="node">
<title>review</title>
<path fill="#e2e3e5" stroke="black" d="M881.88,-913.18C881.88,-913.18 851.88,-913.18 851.88,-913.18 845.88,-913.18 839.88,-907.18 839.88,-901.18 839.88,-901.18 839.88,-889.18 839.88,-889.18 839.88,-883.18 845.88,-877.18 851.88,-877.18 851.88,-877.18 881.88,-877.18 881.88,-877.18 887.88,-877.18 893.88,-883.18 893.88,-889.18 893.88,-889.18 893.88,-901.18 893.88,-901.18 893.88,-907.18 887.88,-913.18 881.88,-913.18"/>
<text text-anchor="middle" x="866.88" y="-898.43" font-family="Helvetica,sans-Serif" font-size="10.00">review</text>
<text text-anchor="middle" x="866.88" y="-885.68" font-family="Helvetica,sans-Serif" font-size="10.00">large ro</text>
</g>
<!-- verify&#45;&gt;review -->
<g id="edge17" class="edge">
<title>verify&#45;&gt;review</title>
<path fill="none" stroke="#856404" stroke-width="2" d="M721.53,-843.56C730.11,-850.17 740.35,-857.21 750.5,-862.18 775.31,-874.33 805.37,-882.75 828.59,-888.04"/>
<polygon fill="#856404" stroke="#856404" stroke-width="2" points="826.24,-891.11 836.75,-889.81 827.72,-884.27 826.24,-891.11"/>
<text text-anchor="middle" x="781.62" y="-886.63" font-family="Helvetica,sans-Serif" font-size="9.00">pass ⟳</text>
</g>
<!-- verify&#45;&gt;steward_quality -->
<g id="edge39" class="edge">
<title>verify&#45;&gt;steward_quality</title>
<path fill="none" stroke="#856404" stroke-dasharray="1,5" d="M692.37,-806.93C684.68,-781.03 671.2,-732.01 665.5,-689.18 661.08,-655.9 671.59,-108.56 647.5,-85.18 612.24,-50.95 242.07,-59.63 205.25,-92.18 181.38,-113.29 213.45,-137.02 195.25,-163.18 187.81,-173.87 177.34,-182.48 166.1,-189.34"/>
<polygon fill="#856404" stroke="#856404" points="165.98,-189.41 162.66,-195.81 155.48,-195.2 158.8,-188.8 165.98,-189.41"/>
</g>
<!-- verify&#45;&gt;steward_security -->
<g id="edge40" class="edge">
<title>verify&#45;&gt;steward_security</title>
<path fill="none" stroke="#856404" stroke-dasharray="1,5" d="M692.37,-806.93C684.67,-781.03 671.18,-732.02 665.5,-689.18 660.97,-655.02 670.03,-95.25 647.5,-69.18 523.86,73.92 263.76,-40.75 153.62,-99.18"/>
<polygon fill="#856404" stroke="#856404" points="153.56,-99.22 150.17,-105.59 142.99,-104.91 146.38,-98.54 153.56,-99.22"/>
</g>
<!-- review&#45;&gt;implement -->
<g id="edge18" class="edge">
<title>review&#45;&gt;implement</title>
<path fill="none" stroke="black" d="M894.31,-887.11C911.78,-881.28 934.89,-872.62 954,-862.18 960.82,-858.45 967.77,-853.93 974.26,-849.32"/>
<polygon fill="black" stroke="black" points="976.19,-852.24 982.16,-843.49 972.04,-846.61 976.19,-852.24"/>
<text text-anchor="middle" x="937.5" y="-879.75" font-family="Helvetica,sans-Serif" font-size="9.00">reject</text>
</g>
<!-- leg1 -->
<g id="node18" class="node">
<title>leg1</title>
<text text-anchor="start" x="51.38" y="-399.5" font-family="Helvetica,sans-Serif" font-size="9.00">Green = user&#45;visible</text>
<text text-anchor="start" x="51.38" y="-388.25" font-family="Helvetica,sans-Serif" font-size="9.00">Gray = agent&#45;initiated</text>
<text text-anchor="start" x="51.38" y="-377" font-family="Helvetica,sans-Serif" font-size="9.00">Yellow = steward</text>
</g>
<!-- leg2 -->
<g id="node19" class="node">
<title>leg2</title>
<text text-anchor="start" x="24" y="-493.38" font-family="Helvetica,sans-Serif" font-size="9.00">Solid arrow = continuation</text>
<text text-anchor="start" x="24" y="-482.13" font-family="Helvetica,sans-Serif" font-size="9.00">Dashed arrow = creates sub&#45;task</text>
<text text-anchor="start" x="24" y="-470.88" font-family="Helvetica,sans-Serif" font-size="9.00">Bold arrow = requires approval</text>
<text text-anchor="start" x="24" y="-459.63" font-family="Helvetica,sans-Serif" font-size="9.00">Dotted diamond = steward review</text>
<text text-anchor="start" x="24" y="-448.38" font-family="Helvetica,sans-Serif" font-size="9.00">⟳ = keep context (session fork)</text>
<text text-anchor="start" x="24" y="-437.13" font-family="Helvetica,sans-Serif" font-size="9.00">⎘ = own worktree</text>
</g>
</g>
</svg>
