<?xml version="1.0" encoding="UTF-8" standalone="no"?>
<!DOCTYPE svg PUBLIC "-//W3C//DTD SVG 1.1//EN"
 "http://www.w3.org/Graphics/SVG/1.1/DTD/svg11.dtd">
<!-- Generated by graphviz version 12.2.1 (0)
 -->
<!-- Title: task_types Pages: 1 -->
<svg width="1192pt" height="901pt"
 viewBox="0.00 0.00 1191.75 900.51" xmlns="http://www.w3.org/2000/svg" xmlns:xlink="http://www.w3.org/1999/xlink">
<g id="graph0" class="graph" transform="scale(1 1) rotate(0) translate(4 896.51)">
<title>task_types</title>
<polygon fill="white" stroke="none" points="-4,4 -4,-896.51 1187.75,-896.51 1187.75,4 -4,4"/>
<g id="clust1" class="cluster">
<title>cluster_legend</title>
<polygon fill="none" stroke="black" stroke-dasharray="5,2" points="8,-711.51 8,-884.51 195.25,-884.51 195.25,-711.51 8,-711.51"/>
<text text-anchor="middle" x="101.62" y="-871.01" font-family="Helvetica,sans-Serif" font-size="10.00">Legend</text>
</g>
<!-- user -->
<g id="node1" class="node">
<title>user</title>
<polygon fill="#cce5ff" stroke="black" points="129.61,-689.07 101.62,-701.51 73.64,-689.07 73.67,-668.95 129.58,-668.95 129.61,-689.07"/>
<text text-anchor="middle" x="101.62" y="-680.39" font-family="Helvetica,sans-Serif" font-size="10.00">user</text>
</g>
<!-- blank -->
<g id="node2" class="node">
<title>blank</title>
<path fill="#d4edda" stroke="black" d="M298.25,-579.51C298.25,-579.51 268.25,-579.51 268.25,-579.51 262.25,-579.51 256.25,-573.51 256.25,-567.51 256.25,-567.51 256.25,-555.51 256.25,-555.51 256.25,-549.51 262.25,-543.51 268.25,-543.51 268.25,-543.51 298.25,-543.51 298.25,-543.51 304.25,-543.51 310.25,-549.51 310.25,-555.51 310.25,-555.51 310.25,-567.51 310.25,-567.51 310.25,-573.51 304.25,-579.51 298.25,-579.51"/>
<text text-anchor="middle" x="283.25" y="-564.76" font-family="Helvetica,sans-Serif" font-size="10.00">blank</text>
<text text-anchor="middle" x="283.25" y="-552.01" font-family="Helvetica,sans-Serif" font-size="10.00">large</text>
</g>
<!-- user&#45;&gt;blank -->
<g id="edge1" class="edge">
<title>user&#45;&gt;blank</title>
<path fill="none" stroke="black" stroke-dasharray="5,2" d="M124.65,-668.55C155.09,-647.87 210.38,-610.32 246.71,-585.65"/>
<polygon fill="black" stroke="black" points="254.95,-580.05 249.21,-589.39 251.83,-582.17 246.68,-585.67 246.68,-585.67 246.68,-585.67 251.83,-582.17 244.15,-581.94 254.95,-580.05"/>
<text text-anchor="middle" x="221.75" y="-614.28" font-family="Helvetica,sans-Serif" font-size="9.00">creates</text>
</g>
<!-- conversation -->
<g id="node3" class="node">
<title>conversation</title>
<path fill="#d4edda" stroke="black" d="M585.25,-495.51C585.25,-495.51 530.25,-495.51 530.25,-495.51 524.25,-495.51 518.25,-489.51 518.25,-483.51 518.25,-483.51 518.25,-471.51 518.25,-471.51 518.25,-465.51 524.25,-459.51 530.25,-459.51 530.25,-459.51 585.25,-459.51 585.25,-459.51 591.25,-459.51 597.25,-465.51 597.25,-471.51 597.25,-471.51 597.25,-483.51 597.25,-483.51 597.25,-489.51 591.25,-495.51 585.25,-495.51"/>
<text text-anchor="middle" x="557.75" y="-480.76" font-family="Helvetica,sans-Serif" font-size="10.00">conversation</text>
<text text-anchor="middle" x="557.75" y="-468.01" font-family="Helvetica,sans-Serif" font-size="10.00">large</text>
</g>
<!-- user&#45;&gt;conversation -->
<g id="edge2" class="edge">
<title>user&#45;&gt;conversation</title>
<path fill="none" stroke="black" stroke-dasharray="5,2" d="M111.51,-668.64C147.16,-610.68 286.59,-399.37 467.25,-325.51 480.83,-319.96 489.19,-315.88 500.25,-325.51 541.28,-361.21 492.87,-401.1 516.55,-449.74"/>
<polygon fill="black" stroke="black" points="521.46,-458.21 512.55,-451.81 519.56,-454.93 516.44,-449.56 516.44,-449.56 516.44,-449.56 519.56,-454.93 520.33,-447.3 521.46,-458.21"/>
<text text-anchor="middle" x="344.75" y="-411.81" font-family="Helvetica,sans-Serif" font-size="9.00">creates</text>
</g>
<!-- plan -->
<g id="node4" class="node">
<title>plan</title>
<path fill="#d4edda" stroke="black" d="M905,-607.51C905,-607.51 875,-607.51 875,-607.51 869,-607.51 863,-601.51 863,-595.51 863,-595.51 863,-583.51 863,-583.51 863,-577.51 869,-571.51 875,-571.51 875,-571.51 905,-571.51 905,-571.51 911,-571.51 917,-577.51 917,-583.51 917,-583.51 917,-595.51 917,-595.51 917,-601.51 911,-607.51 905,-607.51"/>
<text text-anchor="middle" x="890" y="-592.76" font-family="Helvetica,sans-Serif" font-size="10.00">plan</text>
<text text-anchor="middle" x="890" y="-580.01" font-family="Helvetica,sans-Serif" font-size="10.00">large ro</text>
</g>
<!-- user&#45;&gt;plan -->
<g id="edge3" class="edge">
<title>user&#45;&gt;plan</title>
<path fill="none" stroke="black" stroke-dasharray="5,2" d="M130.01,-683.51C165.24,-683.51 228.3,-683.51 282.25,-683.51 282.25,-683.51 282.25,-683.51 647.38,-683.51 737.87,-683.51 766.46,-679.46 845,-634.51 853.45,-629.67 861.35,-622.75 868.06,-615.78"/>
<polygon fill="black" stroke="black" points="874.53,-608.6 871.18,-619.04 872,-611.41 867.84,-616.03 867.84,-616.03 867.84,-616.03 872,-611.41 864.49,-613.01 874.53,-608.6"/>
<text text-anchor="middle" x="483.75" y="-686.21" font-family="Helvetica,sans-Serif" font-size="9.00">creates</text>
</g>
<!-- research -->
<g id="node5" class="node">
<title>research</title>
<path fill="#d4edda" stroke="black" d="M1044.75,-672.51C1044.75,-672.51 999.5,-672.51 999.5,-672.51 993.5,-672.51 987.5,-666.51 987.5,-660.51 987.5,-660.51 987.5,-648.51 987.5,-648.51 987.5,-642.51 993.5,-636.51 999.5,-636.51 999.5,-636.51 1044.75,-636.51 1044.75,-636.51 1050.75,-636.51 1056.75,-642.51 1056.75,-648.51 1056.75,-648.51 1056.75,-660.51 1056.75,-660.51 1056.75,-666.51 1050.75,-672.51 1044.75,-672.51"/>
<text text-anchor="middle" x="1022.12" y="-657.76" font-family="Helvetica,sans-Serif" font-size="10.00">research</text>
<text text-anchor="middle" x="1022.12" y="-645.01" font-family="Helvetica,sans-Serif" font-size="10.00">medium ro</text>
</g>
<!-- user&#45;&gt;research -->
<g id="edge4" class="edge">
<title>user&#45;&gt;research</title>
<path fill="none" stroke="black" stroke-dasharray="5,2" d="M129.95,-684.79C149.91,-687 176.63,-692.76 195.25,-707.51 202.73,-713.44 198.52,-719.75 205.25,-726.51 232.6,-753.99 243.48,-767.51 282.25,-767.51 282.25,-767.51 282.25,-767.51 891,-767.51 942.88,-767.51 984.17,-715.68 1005.42,-682.22"/>
<polygon fill="black" stroke="black" points="1010.49,-673.96 1009.1,-684.83 1008.51,-677.18 1005.26,-682.48 1005.26,-682.48 1005.26,-682.48 1008.51,-677.18 1001.43,-680.13 1010.49,-673.96"/>
<text text-anchor="middle" x="557.75" y="-770.21" font-family="Helvetica,sans-Serif" font-size="9.00">creates</text>
</g>
<!-- bug -->
<g id="node6" class="node">
<title>bug</title>
<path fill="#d4edda" stroke="black" d="M905,-737.51C905,-737.51 875,-737.51 875,-737.51 869,-737.51 863,-731.51 863,-725.51 863,-725.51 863,-713.51 863,-713.51 863,-707.51 869,-701.51 875,-701.51 875,-701.51 905,-701.51 905,-701.51 911,-701.51 917,-707.51 917,-713.51 917,-713.51 917,-725.51 917,-725.51 917,-731.51 911,-737.51 905,-737.51"/>
<text text-anchor="middle" x="890" y="-722.76" font-family="Helvetica,sans-Serif" font-size="10.00">bug</text>
<text text-anchor="middle" x="890" y="-710.01" font-family="Helvetica,sans-Serif" font-size="10.00">large</text>
</g>
<!-- user&#45;&gt;bug -->
<g id="edge5" class="edge">
<title>user&#45;&gt;bug</title>
<path fill="none" stroke="black" stroke-dasharray="5,2" d="M127.91,-690.22C169.9,-701.13 252.37,-721.51 282.25,-721.51 282.25,-721.51 282.25,-721.51 732.62,-721.51 773.37,-721.51 820.08,-720.82 851.76,-720.25"/>
<polygon fill="black" stroke="black" points="861.5,-720.07 851.58,-724.76 857.72,-720.14 851.5,-720.26 851.5,-720.26 851.5,-720.26 857.72,-720.14 851.42,-715.76 861.5,-720.07"/>
<text text-anchor="middle" x="483.75" y="-724.21" font-family="Helvetica,sans-Serif" font-size="9.00">creates</text>
</g>
<!-- plan_mode -->
<g id="node7" class="node">
<title>plan_mode</title>
<path fill="#e2e3e5" stroke="black" d="M437.25,-470.51C437.25,-470.51 391.25,-470.51 391.25,-470.51 385.25,-470.51 379.25,-464.51 379.25,-458.51 379.25,-458.51 379.25,-446.51 379.25,-446.51 379.25,-440.51 385.25,-434.51 391.25,-434.51 391.25,-434.51 437.25,-434.51 437.25,-434.51 443.25,-434.51 449.25,-440.51 449.25,-446.51 449.25,-446.51 449.25,-458.51 449.25,-458.51 449.25,-464.51 443.25,-470.51 437.25,-470.51"/>
<text text-anchor="middle" x="414.25" y="-455.76" font-family="Helvetica,sans-Serif" font-size="10.00">plan_mode</text>
<text text-anchor="middle" x="414.25" y="-443.01" font-family="Helvetica,sans-Serif" font-size="10.00">large ro</text>
</g>
<!-- blank&#45;&gt;plan_mode -->
<g id="edge7" class="edge">
<title>blank&#45;&gt;plan_mode</title>
<path fill="none" stroke="black" d="M306.13,-543.02C327.29,-525.14 359.53,-497.9 383.12,-477.97"/>
<polygon fill="black" stroke="black" points="385.15,-480.83 390.53,-471.7 380.64,-475.49 385.15,-480.83"/>
<text text-anchor="middle" x="344.75" y="-525.84" font-family="Helvetica,sans-Serif" font-size="9.00">plan ⟳</text>
</g>
<!-- bug_mode -->
<g id="node8" class="node">
<title>bug_mode</title>
<path fill="#e2e3e5" stroke="black" d="M753.12,-513.51C753.12,-513.51 710.12,-513.51 710.12,-513.51 704.12,-513.51 698.12,-507.51 698.12,-501.51 698.12,-501.51 698.12,-489.51 698.12,-489.51 698.12,-483.51 704.12,-477.51 710.12,-477.51 710.12,-477.51 753.12,-477.51 753.12,-477.51 759.12,-477.51 765.12,-483.51 765.12,-489.51 765.12,-489.51 765.12,-501.51 765.12,-501.51 765.12,-507.51 759.12,-513.51 753.12,-513.51"/>
<text text-anchor="middle" x="731.62" y="-498.76" font-family="Helvetica,sans-Serif" font-size="10.00">bug_mode</text>
<text text-anchor="middle" x="731.62" y="-486.01" font-family="Helvetica,sans-Serif" font-size="10.00">large</text>
</g>
<!-- blank&#45;&gt;bug_mode -->
<g id="edge6" class="edge">
<title>blank&#45;&gt;bug_mode</title>
<path fill="none" stroke="black" d="M310.44,-577.62C350.99,-600.55 431.49,-637.96 500.25,-620.51 576.31,-601.2 654.44,-551.18 697.34,-520.59"/>
<polygon fill="black" stroke="black" points="699.17,-523.59 705.22,-514.89 695.07,-517.91 699.17,-523.59"/>
<text text-anchor="middle" x="483.75" y="-627.6" font-family="Helvetica,sans-Serif" font-size="9.00">bug ⟳</text>
</g>
<!-- conversation&#45;&gt;plan -->
<g id="edge21" class="edge">
<title>conversation&#45;&gt;plan</title>
<path fill="none" stroke="black" stroke-dasharray="5,2" d="M588.3,-495.94C596.8,-500.77 606.22,-505.69 615.25,-509.51 697,-544.06 798.48,-569.45 851.98,-581.57"/>
<polygon fill="black" stroke="black" points="861.46,-583.68 850.72,-585.89 857.77,-582.86 851.7,-581.5 851.7,-581.5 851.7,-581.5 857.77,-582.86 852.68,-577.11 861.46,-583.68"/>
<text text-anchor="middle" x="731.62" y="-562.76" font-family="Helvetica,sans-Serif" font-size="9.00">creates</text>
</g>
<!-- conversation&#45;&gt;research -->
<g id="edge22" class="edge">
<title>conversation&#45;&gt;research</title>
<path fill="none" stroke="black" stroke-dasharray="5,2" d="M573.71,-495.83C584.39,-508.11 599.58,-524.07 615.25,-535.51 647.44,-559 658.08,-561.8 695.5,-575.51 792.89,-611.19 912.57,-635.49 976.25,-646.96"/>
<polygon fill="black" stroke="black" points="985.9,-648.67 975.27,-651.35 982.18,-648.01 976.05,-646.92 976.05,-646.92 976.05,-646.92 982.18,-648.01 976.84,-642.49 985.9,-648.67"/>
<text text-anchor="middle" x="815.38" y="-622" font-family="Helvetica,sans-Serif" font-size="9.00">creates</text>
</g>
<!-- conversation&#45;&gt;plan_mode -->
<g id="edge9" class="edge">
<title>conversation&#45;&gt;plan_mode</title>
<path fill="none" stroke="black" d="M517.82,-470.63C500.09,-467.5 479.01,-463.78 460.58,-460.52"/>
<polygon fill="black" stroke="black" points="461.45,-457.12 450.99,-458.83 460.23,-464.01 461.45,-457.12"/>
<text text-anchor="middle" x="483.75" y="-469.95" font-family="Helvetica,sans-Serif" font-size="9.00">plan ⟳</text>
</g>
<!-- conversation&#45;&gt;bug_mode -->
<g id="edge8" class="edge">
<title>conversation&#45;&gt;bug_mode</title>
<path fill="none" stroke="black" d="M597.5,-474.77C620.83,-473.86 651.04,-473.99 677.5,-478.26 680.64,-478.77 683.85,-479.43 687.06,-480.19"/>
<polygon fill="black" stroke="black" points="685.83,-483.49 696.4,-482.74 687.67,-476.73 685.83,-483.49"/>
<text text-anchor="middle" x="646.38" y="-480.96" font-family="Helvetica,sans-Serif" font-size="9.00">bug ⟳</text>
</g>
<!-- spike -->
<g id="node9" class="node">
<title>spike</title>
<path fill="#e2e3e5" stroke="black" d="M1046.25,-484.51C1046.25,-484.51 998,-484.51 998,-484.51 992,-484.51 986,-478.51 986,-472.51 986,-472.51 986,-460.51 986,-460.51 986,-454.51 992,-448.51 998,-448.51 998,-448.51 1046.25,-448.51 1046.25,-448.51 1052.25,-448.51 1058.25,-454.51 1058.25,-460.51 1058.25,-460.51 1058.25,-472.51 1058.25,-472.51 1058.25,-478.51 1052.25,-484.51 1046.25,-484.51"/>
<text text-anchor="middle" x="1022.12" y="-470.14" font-family="Helvetica,sans-Serif" font-size="10.00">spike</text>
<text text-anchor="middle" x="1022.12" y="-457.39" font-family="Helvetica,sans-Serif" font-size="10.00">medium ⎘</text>
</g>
<!-- conversation&#45;&gt;spike -->
<g id="edge23" class="edge">
<title>conversation&#45;&gt;spike</title>
<path fill="none" stroke="black" stroke-dasharray="5,2" d="M597.6,-472.19C603.51,-471.53 609.53,-470.93 615.25,-470.51 650.83,-467.87 659.83,-469.06 695.5,-468.51 795.01,-466.96 911.64,-466.6 974.79,-466.52"/>
<polygon fill="black" stroke="black" points="984.73,-466.51 974.73,-471.02 980.95,-466.52 974.73,-466.52 974.73,-466.52 974.73,-466.52 980.95,-466.52 974.72,-462.02 984.73,-466.51"/>
<text text-anchor="middle" x="815.38" y="-470.11" font-family="Helvetica,sans-Serif" font-size="9.00">creates</text>
</g>
<!-- verify -->
<g id="node14" class="node">
<title>verify</title>
<path fill="#e2e3e5" stroke="black" d="M747.88,-235.51C747.88,-235.51 715.38,-235.51 715.38,-235.51 709.38,-235.51 703.38,-229.51 703.38,-223.51 703.38,-223.51 703.38,-211.51 703.38,-211.51 703.38,-205.51 709.38,-199.51 715.38,-199.51 715.38,-199.51 747.88,-199.51 747.88,-199.51 753.88,-199.51 759.88,-205.51 759.88,-211.51 759.88,-211.51 759.88,-223.51 759.88,-223.51 759.88,-229.51 753.88,-235.51 747.88,-235.51"/>
<text text-anchor="middle" x="731.62" y="-220.76" font-family="Helvetica,sans-Serif" font-size="10.00">verify</text>
<text text-anchor="middle" x="731.62" y="-208.01" font-family="Helvetica,sans-Serif" font-size="10.00">medium</text>
</g>
<!-- conversation&#45;&gt;verify -->
<g id="edge24" class="edge">
<title>conversation&#45;&gt;verify</title>
<path fill="none" stroke="black" stroke-dasharray="5,2" d="M579.54,-459.2C586.26,-452.16 593.05,-443.61 597.25,-434.51 622.28,-380.25 584.6,-352.56 615.25,-301.26 633.32,-271.02 666.95,-248.52 693.27,-234.5"/>
<polygon fill="black" stroke="black" points="701.86,-230.1 695.01,-238.66 698.49,-231.82 692.96,-234.66 692.96,-234.66 692.96,-234.66 698.49,-231.82 690.91,-230.65 701.86,-230.1"/>
<text text-anchor="middle" x="646.38" y="-303.96" font-family="Helvetica,sans-Serif" font-size="9.00">creates</text>
</g>
<!-- plan&#45;&gt;research -->
<g id="edge29" class="edge">
<title>plan&#45;&gt;research</title>
<path fill="none" stroke="black" stroke-dasharray="5,2" d="M917.27,-577.04C932.8,-571.55 952.42,-568.01 968,-576.26 987.8,-586.75 1001.58,-608.29 1010.14,-626.12"/>
<polygon fill="black" stroke="black" points="1014.2,-635.23 1006.02,-627.92 1012.66,-631.77 1010.13,-626.09 1010.13,-626.09 1010.13,-626.09 1012.66,-631.77 1014.24,-624.26 1014.2,-635.23"/>
<text text-anchor="middle" x="951.5" y="-578.96" font-family="Helvetica,sans-Serif" font-size="9.00">creates</text>
</g>
<!-- plan&#45;&gt;spike -->
<g id="edge30" class="edge">
<title>plan&#45;&gt;spike</title>
<path fill="none" stroke="black" stroke-dasharray="5,2" d="M910.48,-571.1C932.65,-550.14 969,-515.78 993.95,-492.2"/>
<polygon fill="black" stroke="black" points="1001.05,-485.49 996.87,-495.63 998.3,-488.08 993.78,-492.36 993.78,-492.36 993.78,-492.36 998.3,-488.08 990.69,-489.08 1001.05,-485.49"/>
<text text-anchor="middle" x="951.5" y="-548.91" font-family="Helvetica,sans-Serif" font-size="9.00">creates</text>
</g>
<!-- bug&#45;&gt;research -->
<g id="edge31" class="edge">
<title>bug&#45;&gt;research</title>
<path fill="none" stroke="black" stroke-dasharray="5,2" d="M917.5,-709.73C932.57,-703.86 951.65,-695.92 968,-687.51 973.31,-684.78 978.79,-681.7 984.12,-678.55"/>
<polygon fill="black" stroke="black" points="992.45,-673.48 986.25,-682.52 989.22,-675.45 983.91,-678.68 983.91,-678.68 983.91,-678.68 989.22,-675.45 981.57,-674.83 992.45,-673.48"/>
<text text-anchor="middle" x="951.5" y="-704.59" font-family="Helvetica,sans-Serif" font-size="9.00">creates</text>
</g>
<!-- bug&#45;&gt;spike -->
<g id="edge32" class="edge">
<title>bug&#45;&gt;spike</title>
<path fill="none" stroke="black" stroke-dasharray="5,2" d="M902.65,-701.09C918.37,-675.91 946.82,-629.12 968,-587.51 983.78,-556.52 999.49,-519.81 1009.69,-495.02"/>
<polygon fill="black" stroke="black" points="1013.38,-485.98 1013.77,-496.94 1011.95,-489.48 1009.6,-495.24 1009.6,-495.24 1009.6,-495.24 1011.95,-489.48 1005.44,-493.54 1013.38,-485.98"/>
<text text-anchor="middle" x="951.5" y="-648.98" font-family="Helvetica,sans-Serif" font-size="9.00">creates</text>
</g>
<!-- plan_mode&#45;&gt;conversation -->
<g id="edge11" class="edge">
<title>plan_mode&#45;&gt;conversation</title>
<path fill="none" stroke="black" d="M441.06,-470.93C449.07,-475.66 458.19,-480.08 467.25,-482.51 479.81,-485.87 493.7,-486.51 506.72,-485.84"/>
<polygon fill="black" stroke="black" points="506.68,-489.35 516.37,-485.07 506.12,-482.38 506.68,-489.35"/>
<text text-anchor="middle" x="483.75" y="-488.77" font-family="Helvetica,sans-Serif" font-size="9.00">back ⟳</text>
</g>
<!-- plan_mode&#45;&gt;research -->
<g id="edge25" class="edge">
<title>plan_mode&#45;&gt;research</title>
<path fill="none" stroke="black" stroke-dasharray="5,2" d="M431.78,-470.91C441.42,-480.88 454.22,-492.88 467.25,-501.51 595.16,-586.19 637.24,-596.06 785.75,-634.51 864.73,-654.96 886.43,-658.05 968,-656.51 970.61,-656.46 973.29,-656.4 975.99,-656.33"/>
<polygon fill="black" stroke="black" points="985.9,-656.02 976.05,-660.83 982.12,-656.14 975.91,-656.33 975.91,-656.33 975.91,-656.33 982.12,-656.14 975.77,-651.83 985.9,-656.02"/>
<text text-anchor="middle" x="731.62" y="-631.96" font-family="Helvetica,sans-Serif" font-size="9.00">creates</text>
</g>
<!-- plan_mode&#45;&gt;spike -->
<g id="edge26" class="edge">
<title>plan_mode&#45;&gt;spike</title>
<path fill="none" stroke="black" stroke-dasharray="5,2" d="M449.65,-436.88C532.74,-401.44 749.84,-322.67 917,-384.51 948.35,-396.11 977.64,-420.94 997.12,-440.26"/>
<polygon fill="black" stroke="black" points="1004,-447.28 993.78,-443.28 1001.35,-444.57 997,-440.13 997,-440.13 997,-440.13 1001.35,-444.57 1000.21,-436.98 1004,-447.28"/>
<text text-anchor="middle" x="731.62" y="-369.78" font-family="Helvetica,sans-Serif" font-size="9.00">creates</text>
</g>
<!-- triage -->
<g id="node11" class="node">
<title>triage</title>
<path fill="#e2e3e5" stroke="black" d="M572.75,-334.51C572.75,-334.51 542.75,-334.51 542.75,-334.51 536.75,-334.51 530.75,-328.51 530.75,-322.51 530.75,-322.51 530.75,-310.51 530.75,-310.51 530.75,-304.51 536.75,-298.51 542.75,-298.51 542.75,-298.51 572.75,-298.51 572.75,-298.51 578.75,-298.51 584.75,-304.51 584.75,-310.51 584.75,-310.51 584.75,-322.51 584.75,-322.51 584.75,-328.51 578.75,-334.51 572.75,-334.51"/>
<text text-anchor="middle" x="557.75" y="-319.76" font-family="Helvetica,sans-Serif" font-size="10.00">triage</text>
<text text-anchor="middle" x="557.75" y="-307.01" font-family="Helvetica,sans-Serif" font-size="10.00">large ro</text>
</g>
<!-- plan_mode&#45;&gt;triage -->
<g id="edge10" class="edge">
<title>plan_mode&#45;&gt;triage</title>
<path fill="none" stroke="#856404" stroke-width="2" d="M419.36,-434.22C425.65,-410.4 439.91,-369 467.25,-345.26 481.81,-332.62 501.98,-325.52 519.5,-321.55"/>
<polygon fill="#856404" stroke="#856404" stroke-width="2" points="518.44,-325.32 527.57,-319.94 517.08,-318.46 518.44,-325.32"/>
<text text-anchor="middle" x="483.75" y="-347.96" font-family="Helvetica,sans-Serif" font-size="9.00">done ⟳</text>
</g>
<!-- steward_quality -->
<g id="node16" class="node">
<title>steward_quality</title>
<path fill="#fff3cd" stroke="black" d="M173.57,-316.97C173.57,-316.97 173.57,-324.05 173.57,-324.05 173.57,-327.59 170.23,-332.32 166.9,-333.51 166.9,-333.51 138.09,-343.77 138.09,-343.77 134.76,-344.96 127.89,-346.15 124.35,-346.15 124.35,-346.15 78.9,-346.15 78.9,-346.15 75.36,-346.15 68.49,-344.96 65.16,-343.77 65.16,-343.77 36.35,-333.51 36.35,-333.51 33.02,-332.32 29.68,-327.59 29.68,-324.05 29.68,-324.05 29.68,-316.97 29.68,-316.97 29.68,-313.43 33.02,-308.7 36.35,-307.51 36.35,-307.51 65.16,-297.25 65.16,-297.25 68.49,-296.06 75.36,-294.87 78.9,-294.87 78.9,-294.87 124.35,-294.87 124.35,-294.87 127.89,-294.87 134.76,-296.06 138.09,-297.25 138.09,-297.25 166.9,-307.51 166.9,-307.51 170.23,-308.7 173.57,-313.43 173.57,-316.97"/>
<text text-anchor="middle" x="101.62" y="-323.76" font-family="Helvetica,sans-Serif" font-size="10.00">steward_quality</text>
<text text-anchor="middle" x="101.62" y="-311.01" font-family="Helvetica,sans-Serif" font-size="10.00">large ro</text>
</g>
<!-- plan_mode&#45;&gt;steward_quality -->
<g id="edge37" class="edge">
<title>plan_mode&#45;&gt;steward_quality</title>
<path fill="none" stroke="#856404" stroke-dasharray="1,5" d="M411.11,-470.73C405.55,-514.43 389.16,-623.16 361.25,-644.51 305.31,-687.32 257.72,-663.51 205.25,-616.51 129.76,-548.89 109.79,-422.9 104.52,-359.32"/>
<polygon fill="#856404" stroke="#856404" points="104.51,-359.25 100.09,-353.56 103.64,-347.29 108.07,-352.98 104.51,-359.25"/>
</g>
<!-- steward_security -->
<g id="node17" class="node">
<title>steward_security</title>
<path fill="#fff3cd" stroke="black" d="M177.59,-153.97C177.59,-153.97 177.59,-161.05 177.59,-161.05 177.59,-164.59 174.23,-169.26 170.88,-170.39 170.88,-170.39 139.8,-180.89 139.8,-180.89 136.44,-182.02 129.55,-183.15 126.01,-183.15 126.01,-183.15 77.24,-183.15 77.24,-183.15 73.7,-183.15 66.81,-182.02 63.45,-180.89 63.45,-180.89 32.37,-170.39 32.37,-170.39 29.02,-169.26 25.66,-164.59 25.66,-161.05 25.66,-161.05 25.66,-153.97 25.66,-153.97 25.66,-150.43 29.02,-145.76 32.37,-144.63 32.37,-144.63 63.45,-134.13 63.45,-134.13 66.81,-133 73.7,-131.87 77.24,-131.87 77.24,-131.87 126.01,-131.87 126.01,-131.87 129.55,-131.87 136.44,-133 139.8,-134.13 139.8,-134.13 170.88,-144.63 170.88,-144.63 174.23,-145.76 177.59,-150.43 177.59,-153.97"/>
<text text-anchor="middle" x="101.62" y="-160.76" font-family="Helvetica,sans-Serif" font-size="10.00">steward_security</text>
<text text-anchor="middle" x="101.62" y="-148.01" font-family="Helvetica,sans-Serif" font-size="10.00">large ro</text>
</g>
<!-- plan_mode&#45;&gt;steward_security -->
<g id="edge38" class="edge">
<title>plan_mode&#45;&gt;steward_security</title>
<path fill="none" stroke="#856404" stroke-dasharray="1,5" d="M406.53,-470.98C393.68,-502.96 362.21,-567.29 310.25,-588.51 267.05,-606.16 238.79,-620.96 205.25,-588.51 193.15,-576.8 200.7,-301.45 195.25,-285.51 183.28,-250.54 158.25,-216.92 137.22,-192.92"/>
<polygon fill="#856404" stroke="#856404" points="137.14,-192.83 130.16,-191.05 129.11,-183.91 136.1,-185.69 137.14,-192.83"/>
</g>
<!-- bug_mode&#45;&gt;conversation -->
<g id="edge14" class="edge">
<title>bug_mode&#45;&gt;conversation</title>
<path fill="none" stroke="black" d="M697.68,-495.17C674.53,-494.6 642.89,-493.14 615.25,-489.51 613.09,-489.23 610.88,-488.9 608.66,-488.55"/>
<polygon fill="black" stroke="black" points="609.46,-485.14 599.01,-486.85 608.24,-492.03 609.46,-485.14"/>
<text text-anchor="middle" x="646.38" y="-497.08" font-family="Helvetica,sans-Serif" font-size="9.00">back ⟳</text>
</g>
<!-- bug_mode&#45;&gt;research -->
<g id="edge27" class="edge">
<title>bug_mode&#45;&gt;research</title>
<path fill="none" stroke="black" stroke-dasharray="5,2" d="M765.57,-502.5C822.48,-515.07 936.15,-542.51 968,-567.51 987.29,-582.65 1001.26,-606.89 1010.02,-625.95"/>
<polygon fill="black" stroke="black" points="1013.98,-635.06 1005.87,-627.68 1012.47,-631.59 1010,-625.89 1010,-625.89 1010,-625.89 1012.47,-631.59 1014.13,-624.1 1013.98,-635.06"/>
<text text-anchor="middle" x="890" y="-545.27" font-family="Helvetica,sans-Serif" font-size="9.00">creates</text>
</g>
<!-- bug_mode&#45;&gt;plan_mode -->
<g id="edge13" class="edge">
<title>bug_mode&#45;&gt;plan_mode</title>
<path fill="none" stroke="black" d="M697.88,-477.03C671.62,-463.38 633.31,-446.03 597.25,-439.26 551.11,-430.59 497.41,-436.4 460.36,-442.83"/>
<polygon fill="black" stroke="black" points="460.12,-439.31 450.91,-444.55 461.38,-446.2 460.12,-439.31"/>
<text text-anchor="middle" x="557.75" y="-441.96" font-family="Helvetica,sans-Serif" font-size="9.00">needs_plan ⟳</text>
</g>
<!-- bug_mode&#45;&gt;spike -->
<g id="edge28" class="edge">
<title>bug_mode&#45;&gt;spike</title>
<path fill="none" stroke="black" stroke-dasharray="5,2" d="M765.44,-492.21C816.67,-487.06 915.84,-477.09 974.48,-471.2"/>
<polygon fill="black" stroke="black" points="984.43,-470.2 974.93,-475.68 980.67,-470.58 974.48,-471.2 974.48,-471.2 974.48,-471.2 980.67,-470.58 974.03,-466.72 984.43,-470.2"/>
<text text-anchor="middle" x="890" y="-484.68" font-family="Helvetica,sans-Serif" font-size="9.00">creates</text>
</g>
<!-- implement -->
<g id="node13" class="node">
<title>implement</title>
<path fill="#e2e3e5" stroke="black" d="M1046.25,-236.51C1046.25,-236.51 998,-236.51 998,-236.51 992,-236.51 986,-230.51 986,-224.51 986,-224.51 986,-212.51 986,-212.51 986,-206.51 992,-200.51 998,-200.51 998,-200.51 1046.25,-200.51 1046.25,-200.51 1052.25,-200.51 1058.25,-206.51 1058.25,-212.51 1058.25,-212.51 1058.25,-224.51 1058.25,-224.51 1058.25,-230.51 1052.25,-236.51 1046.25,-236.51"/>
<text text-anchor="middle" x="1022.12" y="-222.14" font-family="Helvetica,sans-Serif" font-size="10.00">implement</text>
<text text-anchor="middle" x="1022.12" y="-209.39" font-family="Helvetica,sans-Serif" font-size="10.00">medium ⎘</text>
</g>
<!-- bug_mode&#45;&gt;implement -->
<g id="edge12" class="edge">
<title>bug_mode&#45;&gt;implement</title>
<path fill="none" stroke="black" d="M765.57,-489.53C789.38,-483.98 821.37,-473.88 845,-456.51 923.33,-398.93 982.05,-296.53 1007.38,-246.96"/>
<polygon fill="black" stroke="black" points="1010.38,-248.8 1011.74,-238.3 1004.12,-245.66 1010.38,-248.8"/>
<text text-anchor="middle" x="890" y="-442.6" font-family="Helvetica,sans-Serif" font-size="9.00">small_fix ⟳</text>
</g>
<!-- test -->
<g id="node10" class="node">
<title>test</title>
<path fill="#e2e3e5" stroke="black" d="M1171.75,-236.51C1171.75,-236.51 1139.25,-236.51 1139.25,-236.51 1133.25,-236.51 1127.25,-230.51 1127.25,-224.51 1127.25,-224.51 1127.25,-212.51 1127.25,-212.51 1127.25,-206.51 1133.25,-200.51 1139.25,-200.51 1139.25,-200.51 1171.75,-200.51 1171.75,-200.51 1177.75,-200.51 1183.75,-206.51 1183.75,-212.51 1183.75,-212.51 1183.75,-224.51 1183.75,-224.51 1183.75,-230.51 1177.75,-236.51 1171.75,-236.51"/>
<text text-anchor="middle" x="1155.5" y="-221.76" font-family="Helvetica,sans-Serif" font-size="10.00">test</text>
<text text-anchor="middle" x="1155.5" y="-209.01" font-family="Helvetica,sans-Serif" font-size="10.00">medium</text>
</g>
<!-- decompose -->
<g id="node12" class="node">
<title>decompose</title>
<path fill="#e2e3e5" stroke="black" d="M755.75,-334.51C755.75,-334.51 707.5,-334.51 707.5,-334.51 701.5,-334.51 695.5,-328.51 695.5,-322.51 695.5,-322.51 695.5,-310.51 695.5,-310.51 695.5,-304.51 701.5,-298.51 707.5,-298.51 707.5,-298.51 755.75,-298.51 755.75,-298.51 761.75,-298.51 767.75,-304.51 767.75,-310.51 767.75,-310.51 767.75,-322.51 767.75,-322.51 767.75,-328.51 761.75,-334.51 755.75,-334.51"/>
<text text-anchor="middle" x="731.62" y="-319.76" font-family="Helvetica,sans-Serif" font-size="10.00">decompose</text>
<text text-anchor="middle" x="731.62" y="-307.01" font-family="Helvetica,sans-Serif" font-size="10.00">large ro</text>
</g>
<!-- triage&#45;&gt;decompose -->
<g id="edge16" class="edge">
<title>triage&#45;&gt;decompose</title>
<path fill="none" stroke="#856404" stroke-width="2" d="M585.23,-316.51C611.48,-316.51 652.25,-316.51 683.94,-316.51"/>
<polygon fill="#856404" stroke="#856404" stroke-width="2" points="682.14,-320.01 692.14,-316.51 682.14,-313.01 682.14,-320.01"/>
<text text-anchor="middle" x="646.38" y="-319.21" font-family="Helvetica,sans-Serif" font-size="9.00">decompose ⟳</text>
</g>
<!-- triage&#45;&gt;implement -->
<g id="edge15" class="edge">
<title>triage&#45;&gt;implement</title>
<path fill="none" stroke="#856404" stroke-width="2" d="M569.76,-298.23C580.16,-281.9 596.88,-257.93 615.25,-240.51 681.26,-177.91 698.66,-153.55 785.75,-127.26 863.57,-103.77 900.73,-96.89 968,-142.51 985.38,-154.3 998.84,-173.8 1007.86,-190.1"/>
<polygon fill="#856404" stroke="#856404" stroke-width="2" points="1004.02,-190.3 1011.75,-197.55 1010.23,-187.06 1004.02,-190.3"/>
<text text-anchor="middle" x="815.38" y="-129.96" font-family="Helvetica,sans-Serif" font-size="9.00">implement ⟳</text>
</g>
<!-- triage&#45;&gt;steward_quality -->
<g id="edge39" class="edge">
<title>triage&#45;&gt;steward_quality</title>
<path fill="none" stroke="#856404" stroke-dasharray="1,5" d="M550.45,-334.62C542.68,-357.06 529.18,-396.5 518.25,-430.51 509.86,-456.61 515.31,-466.6 500.25,-489.51 489.68,-505.58 479.39,-502.59 467.25,-517.51 456.7,-530.47 463.57,-541.9 449.25,-550.51 413.79,-571.83 348.57,-560.07 328.25,-551.51 325.14,-550.2 198.99,-420.09 136.7,-355.74"/>
<polygon fill="#856404" stroke="#856404" points="136.61,-355.65 129.56,-354.12 128.27,-347.03 135.31,-348.56 136.61,-355.65"/>
</g>
<!-- triage&#45;&gt;steward_security -->
<g id="edge40" class="edge">
<title>triage&#45;&gt;steward_security</title>
<path fill="none" stroke="#856404" stroke-dasharray="1,5" d="M550.63,-334.92C538.04,-372.37 509.65,-454.76 500.25,-464.51 462.64,-503.53 353.86,-541.26 328.25,-523.51 309.52,-510.53 320.19,-496.01 310.25,-475.51 267.18,-386.69 249.78,-367.79 195.25,-285.51 174.3,-253.9 148.96,-219.1 130.09,-193.78"/>
<polygon fill="#856404" stroke="#856404" points="130.16,-193.87 123.36,-191.46 122.97,-184.26 129.76,-186.67 130.16,-193.87"/>
</g>
<!-- decompose&#45;&gt;plan -->
<g id="edge34" class="edge">
<title>decompose&#45;&gt;plan</title>
<path fill="none" stroke="black" stroke-dasharray="5,2" d="M765.88,-334.97C792.03,-351.39 826.95,-377.94 845,-411.26 876.19,-468.85 837.35,-497.25 863,-557.51 863.63,-558.99 864.35,-560.46 865.14,-561.91"/>
<polygon fill="black" stroke="black" points="870.47,-570.01 861.22,-564.13 868.39,-566.85 864.98,-561.66 864.98,-561.66 864.98,-561.66 868.39,-566.85 868.74,-559.18 870.47,-570.01"/>
<text text-anchor="middle" x="815.38" y="-413.96" font-family="Helvetica,sans-Serif" font-size="9.00">creates</text>
</g>
<!-- decompose&#45;&gt;spike -->
<g id="edge35" class="edge">
<title>decompose&#45;&gt;spike</title>
<path fill="none" stroke="black" stroke-dasharray="5,2" d="M768.01,-314.58C806.48,-313.88 868.89,-316.9 917,-339.26 960.26,-359.36 991.41,-407.44 1007.83,-438.41"/>
<polygon fill="black" stroke="black" points="1012.27,-447.1 1003.71,-440.25 1010.55,-443.74 1007.72,-438.2 1007.72,-438.2 1007.72,-438.2 1010.55,-443.74 1011.73,-436.15 1012.27,-447.1"/>
<text text-anchor="middle" x="890" y="-341.96" font-family="Helvetica,sans-Serif" font-size="9.00">creates</text>
</g>
<!-- decompose&#45;&gt;implement -->
<g id="edge33" class="edge">
<title>decompose&#45;&gt;implement</title>
<path fill="none" stroke="black" stroke-dasharray="5,2" d="M768,-304.49C820.16,-286.78 917.73,-253.63 975.3,-234.08"/>
<polygon fill="black" stroke="black" points="984.76,-230.86 976.74,-238.34 981.18,-232.08 975.29,-234.08 975.29,-234.08 975.29,-234.08 981.18,-232.08 973.84,-229.82 984.76,-230.86"/>
<text text-anchor="middle" x="890" y="-273.47" font-family="Helvetica,sans-Serif" font-size="9.00">creates</text>
</g>
<!-- implement&#45;&gt;test -->
<g id="edge36" class="edge">
<title>implement&#45;&gt;test</title>
<path fill="none" stroke="black" stroke-dasharray="5,2" d="M1058.68,-218.51C1076.34,-218.51 1097.71,-218.51 1115.79,-218.51"/>
<polygon fill="black" stroke="black" points="1125.62,-218.51 1115.62,-223.01 1121.84,-218.51 1115.62,-218.51 1115.62,-218.51 1115.62,-218.51 1121.84,-218.51 1115.62,-214.01 1125.62,-218.51"/>
<text text-anchor="middle" x="1092.75" y="-221.21" font-family="Helvetica,sans-Serif" font-size="9.00">creates</text>
</g>
<!-- implement&#45;&gt;verify -->
<g id="edge17" class="edge">
<title>implement&#45;&gt;verify</title>
<path fill="none" stroke="black" d="M985.52,-218.39C931.15,-218.2 827.84,-217.84 771.55,-217.65"/>
<polygon fill="black" stroke="black" points="771.81,-214.15 761.8,-217.61 771.79,-221.15 771.81,-214.15"/>
<text text-anchor="middle" x="890" y="-220.84" font-family="Helvetica,sans-Serif" font-size="9.00">done</text>
</g>
<!-- verify&#45;&gt;implement -->
<g id="edge18" class="edge">
<title>verify&#45;&gt;implement</title>
<path fill="none" stroke="black" d="M751.89,-199.23C785.03,-170.09 855.22,-118.42 917,-139.26 947.94,-149.7 976.96,-173.39 996.46,-192.17"/>
<polygon fill="black" stroke="black" points="993.84,-194.5 1003.4,-199.06 998.77,-189.53 993.84,-194.5"/>
<text text-anchor="middle" x="890" y="-141.96" font-family="Helvetica,sans-Serif" font-size="9.00">fail</text>
</g>
<!-- review -->
<g id="node15" class="node">
<title>review</title>
<path fill="#e2e3e5" stroke="black" d="M905,-195.51C905,-195.51 875,-195.51 875,-195.51 869,-195.51 863,-189.51 863,-183.51 863,-183.51 863,-171.51 863,-171.51 863,-165.51 869,-159.51 875,-159.51 875,-159.51 905,-159.51 905,-159.51 911,-159.51 917,-165.51 917,-171.51 917,-171.51 917,-183.51 917,-183.51 917,-189.51 911,-195.51 905,-195.51"/>
<text text-anchor="middle" x="890" y="-180.76" font-family="Helvetica,sans-Serif" font-size="10.00">review</text>
<text text-anchor="middle" x="890" y="-168.01" font-family="Helvetica,sans-Serif" font-size="10.00">large ro</text>
</g>
<!-- verify&#45;&gt;review -->
<g id="edge19" class="edge">
<title>verify&#45;&gt;review</title>
<path fill="none" stroke="#856404" stroke-width="2" d="M760.22,-210.45C785.65,-203.95 823.6,-194.24 851.72,-187.05"/>
<polygon fill="#856404" stroke="#856404" stroke-width="2" points="850.97,-190.85 859.79,-184.98 849.23,-184.07 850.97,-190.85"/>
<text text-anchor="middle" x="815.38" y="-206.13" font-family="Helvetica,sans-Serif" font-size="9.00">pass ⟳</text>
</g>
<!-- verify&#45;&gt;steward_quality -->
<g id="edge41" class="edge">
<title>verify&#45;&gt;steward_quality</title>
<path fill="none" stroke="#856404" stroke-dasharray="1,5" d="M703.17,-222.01C613.61,-236.7 327.61,-283.61 185.04,-306.99"/>
<polygon fill="#856404" stroke="#856404" points="185.27,-306.96 179.99,-311.87 173.42,-308.9 178.7,-303.98 185.27,-306.96"/>
</g>
<!-- verify&#45;&gt;steward_security -->
<g id="edge42" class="edge">
<title>verify&#45;&gt;steward_security</title>
<path fill="none" stroke="#856404" stroke-dasharray="1,5" d="M731.25,-199.06C731.34,-163.07 725.73,-83.9 677.5,-48.51 513.94,71.53 255.68,-62.08 150.04,-126.62"/>
<polygon fill="#856404" stroke="#856404" points="150.08,-126.59 147.09,-133.15 139.88,-132.91 142.88,-126.35 150.08,-126.59"/>
</g>
<!-- review&#45;&gt;implement -->
<g id="edge20" class="edge">
<title>review&#45;&gt;implement</title>
<path fill="none" stroke="black" d="M917.33,-185.81C933.92,-191.03 955.8,-197.93 975.18,-204.03"/>
<polygon fill="black" stroke="black" points="973.92,-207.3 984.51,-206.97 976.02,-200.63 973.92,-207.3"/>
<text text-anchor="middle" x="951.5" y="-204.38" font-family="Helvetica,sans-Serif" font-size="9.00">reject</text>
</g>
<!-- leg1 -->
<g id="node18" class="node">
<title>leg1</title>
<text text-anchor="start" x="51.38" y="-748.84" font-family="Helvetica,sans-Serif" font-size="9.00">Green = user&#45;visible</text>
<text text-anchor="start" x="51.38" y="-737.59" font-family="Helvetica,sans-Serif" font-size="9.00">Gray = agent&#45;initiated</text>
<text text-anchor="start" x="51.38" y="-726.34" font-family="Helvetica,sans-Serif" font-size="9.00">Yellow = steward</text>
</g>
<!-- leg2 -->
<g id="node19" class="node">
<title>leg2</title>
<text text-anchor="start" x="24" y="-843.09" font-family="Helvetica,sans-Serif" font-size="9.00">Solid arrow = continuation</text>
<text text-anchor="start" x="24" y="-831.84" font-family="Helvetica,sans-Serif" font-size="9.00">Dashed arrow = creates sub&#45;task</text>
<text text-anchor="start" x="24" y="-820.59" font-family="Helvetica,sans-Serif" font-size="9.00">Bold arrow = requires approval</text>
<text text-anchor="start" x="24" y="-809.34" font-family="Helvetica,sans-Serif" font-size="9.00">Dotted diamond = steward review</text>
<text text-anchor="start" x="24" y="-798.09" font-family="Helvetica,sans-Serif" font-size="9.00">⟳ = keep context (session fork)</text>
<text text-anchor="start" x="24" y="-786.84" font-family="Helvetica,sans-Serif" font-size="9.00">⎘ = own worktree</text>
</g>
</g>
</svg>
